<?xml version="1.0" encoding="UTF-8"?>
<svg xmlns="http://www.w3.org/2000/svg" xmlns:xlink="http://www.w3.org/1999/xlink" viewBox="0 0 500 500">
  <defs>
    <style>
      .cls-1 {
        fill: url(#linear-gradient-13);
      }

      .cls-2 {
        fill: #9eb7c7;
      }

      .cls-3 {
        fill: url(#linear-gradient-2);
      }

      .cls-4 {
        fill: url(#radial-gradient-5);
      }

      .cls-4, .cls-5, .cls-6, .cls-7, .cls-8, .cls-9, .cls-10, .cls-11, .cls-12, .cls-13, .cls-14, .cls-15 {
        mix-blend-mode: multiply;
        opacity: .8;
      }

      .cls-5 {
        fill: url(#radial-gradient-12);
      }

      .cls-16 {
        fill: url(#linear-gradient-10);
      }

      .cls-17 {
        fill: url(#linear-gradient-12);
      }

      .cls-18 {
        letter-spacing: .04em;
      }

      .cls-19 {
        letter-spacing: .05em;
      }

      .cls-20, .cls-21 {
        fill: #fbfbfb;
      }

      .cls-6 {
        fill: url(#radial-gradient-10);
      }

      .cls-22 {
        fill: #fff;
      }

      .cls-22, .cls-21 {
        fill-rule: evenodd;
      }

      .cls-7 {
        fill: url(#radial-gradient-8);
      }

      .cls-8 {
        fill: url(#radial-gradient-11);
      }

      .cls-9 {
        fill: url(#radial-gradient-2);
      }

      .cls-23 {
        fill: url(#linear-gradient-4);
      }

      .cls-10 {
        fill: url(#radial-gradient);
      }

      .cls-11 {
        fill: url(#radial-gradient-9);
      }

      .cls-24 {
        fill: url(#linear-gradient-3);
      }

      .cls-25 {
        fill: url(#linear-gradient-5);
      }

      .cls-12 {
        fill: url(#radial-gradient-4);
      }

      .cls-26 {
        isolation: isolate;
      }

      .cls-27 {
        fill: url(#linear-gradient-8);
      }

      .cls-13 {
        fill: url(#radial-gradient-3);
      }

      .cls-28 {
        fill: url(#linear-gradient-7);
      }

      .cls-29 {
        letter-spacing: .05em;
      }

      .cls-30 {
        fill: url(#linear-gradient-9);
      }

      .cls-31 {
        fill: url(#linear-gradient-11);
      }

      .cls-32 {
        fill: url(#linear-gradient-6);
      }

      .cls-14 {
        fill: url(#radial-gradient-6);
      }

      .cls-15 {
        fill: url(#radial-gradient-7);
      }

      .cls-33 {
        fill: #ff5e51;
        font-family: Montserrat-Bold, Montserrat;
        font-size: 27.49px;
        font-weight: 700;
      }

      .cls-34 {
        fill: url(#linear-gradient);
      }
    </style>
    <linearGradient id="linear-gradient" x1="250" y1="500" x2="250" y2="0" gradientUnits="userSpaceOnUse">
      <stop offset="0" stop-color="#fff"/>
      <stop offset="1" stop-color="#e6e6e6"/>
    </linearGradient>
    <radialGradient id="radial-gradient" cx="162.51" cy="326.67" fx="162.51" fy="326.67" r="24.49" gradientUnits="userSpaceOnUse">
      <stop offset="0" stop-color="#a1a0fc"/>
      <stop offset="1" stop-color="#fff"/>
    </radialGradient>
    <linearGradient id="linear-gradient-2" x1="147.98" y1="282.34" x2="246.61" y2="282.34" gradientUnits="userSpaceOnUse">
      <stop offset="0" stop-color="#fe1dc7"/>
      <stop offset="1" stop-color="#ff7724"/>
    </linearGradient>
    <radialGradient id="radial-gradient-2" cx="270.52" cy="219.67" fx="270.52" fy="219.67" xlink:href="#radial-gradient"/>
    <linearGradient id="linear-gradient-3" x1="258.75" y1="176.14" x2="357.38" y2="176.14" xlink:href="#linear-gradient-2"/>
    <radialGradient id="radial-gradient-3" cx="378.53" cy="219.67" fx="378.53" fy="219.67" xlink:href="#radial-gradient"/>
    <linearGradient id="linear-gradient-4" x1="367.58" y1="176.14" x2="466.22" y2="176.14" xlink:href="#linear-gradient-2"/>
    <radialGradient id="radial-gradient-4" cx="270.52" cy="433.67" fx="270.52" fy="433.67" xlink:href="#radial-gradient"/>
    <linearGradient id="linear-gradient-5" x1="258.75" y1="389.26" x2="357.38" y2="389.26" xlink:href="#linear-gradient-2"/>
    <radialGradient id="radial-gradient-5" cx="378.53" fx="378.53" xlink:href="#radial-gradient"/>
    <linearGradient id="linear-gradient-6" x1="367.58" x2="466.22" xlink:href="#linear-gradient-2"/>
    <radialGradient id="radial-gradient-6" cx="378.53" cy="433.67" fx="378.53" fy="433.67" xlink:href="#radial-gradient"/>
    <linearGradient id="linear-gradient-7" x1="367.58" y1="389.26" x2="466.22" y2="389.26" xlink:href="#linear-gradient-2"/>
    <radialGradient id="radial-gradient-7" cy="219.67" fy="219.67" xlink:href="#radial-gradient"/>
    <linearGradient id="linear-gradient-8" y1="176.14" y2="176.14" xlink:href="#linear-gradient-2"/>
    <radialGradient id="radial-gradient-8" cx="270.52" fx="270.52" xlink:href="#radial-gradient"/>
    <linearGradient id="linear-gradient-9" x1="258.75" x2="357.38" xlink:href="#linear-gradient-2"/>
    <radialGradient id="radial-gradient-9" cy="433.67" fy="433.67" xlink:href="#radial-gradient"/>
    <linearGradient id="linear-gradient-10" y1="389.26" y2="389.26" xlink:href="#linear-gradient-2"/>
    <radialGradient id="radial-gradient-10" cx="54.5" cy="433.67" fx="54.5" fy="433.67" r="24.49" xlink:href="#radial-gradient"/>
    <linearGradient id="linear-gradient-11" x1="38.63" y1="389.26" x2="137.26" y2="389.26" xlink:href="#linear-gradient-2"/>
    <radialGradient id="radial-gradient-11" cx="54.5" fx="54.5" r="24.49" xlink:href="#radial-gradient"/>
    <linearGradient id="linear-gradient-12" x1="38.63" x2="137.26" xlink:href="#linear-gradient-2"/>
    <radialGradient id="radial-gradient-12" cx="54.5" cy="219.67" fx="54.5" fy="219.67" r="24.49" xlink:href="#radial-gradient"/>
    <linearGradient id="linear-gradient-13" x1="38.63" y1="176.14" x2="137.26" y2="176.14" xlink:href="#linear-gradient-2"/>
  </defs>
  <g class="cls-26">
    <g id="Background">
      <rect class="cls-34" width="500" height="500"/>
    </g>
    <g id="Objects">
      <text class="cls-33" transform="translate(86.06 86.66)"><tspan class="cls-29" x="0" y="0">SOCIAL MEDIA </tspan><tspan class="cls-18" x="238.5" y="0">L</tspan><tspan class="cls-19" x="256.15" y="0">OGO</tspan></text>
      <g>
        <ellipse class="cls-10" cx="162.51" cy="326.67" rx="34.5" ry="3"/>
        <path class="cls-3" d="M242.92,286.04l-37.26-42.68c-2.85-3.26-6.96-5.13-11.28-5.13-.55,0-1.12.03-1.66.09-4.88.54-9.19,3.45-11.52,7.78l-31.42,58.25c-2.78,5.16-2.29,11.51,1.25,16.17,2.82,3.71,7.28,5.92,11.93,5.92h0c.97,0,1.94-.09,2.91-.29.14-.03.29-.06.4-.08l68.68-15.57c5.12-1.16,9.31-4.98,10.94-9.97,1.62-4.99.49-10.54-2.96-14.49Z"/>
        <g>
          <path class="cls-22" d="M220.81,283.15c-.31-12.39-10.52-22.34-23.09-22.34s-22.54,9.72-23.08,21.92c-.01.33-.02.67-.02,1,0,4.34,1.21,8.38,3.31,11.84l-4.16,12.3,12.79-4.07c3.31,1.82,7.12,2.86,11.16,2.86,12.76,0,23.1-10.26,23.1-22.93,0-.19,0-.39,0-.58ZM197.72,303.01c-3.95,0-7.61-1.17-10.68-3.19l-7.46,2.38,2.42-7.16c-2.32-3.18-3.7-7.08-3.7-11.3,0-.63.03-1.25.1-1.87.95-9.76,9.26-17.4,19.33-17.4s18.58,7.84,19.36,17.77c.04.5.06.99.06,1.5,0,10.63-8.72,19.27-19.42,19.27Z"/>
          <path class="cls-22" d="M208.31,288.36c-.57-.28-3.35-1.64-3.87-1.83-.52-.2-.9-.28-1.28.28-.38.56-1.47,1.83-1.8,2.2-.33.38-.66.42-1.23.14-.56-.28-2.39-.87-4.55-2.79-1.68-1.48-2.82-3.32-3.15-3.88-.33-.56-.03-.87.25-1.15.26-.26.56-.66.85-.98.08-.1.14-.18.21-.27.13-.21.23-.4.36-.67.2-.38.1-.7-.04-.98-.14-.28-1.28-3.05-1.75-4.17-.46-1.12-.94-.93-1.28-.93s-.7-.05-1.08-.05-.99.14-1.51.7c-.52.56-1.98,1.92-1.98,4.69,0,.65.12,1.3.29,1.92.57,1.98,1.81,3.61,2.02,3.89.28.37,3.91,6.23,9.67,8.49,5.76,2.24,5.76,1.49,6.8,1.39,1.04-.09,3.35-1.35,3.82-2.67.48-1.31.48-2.43.34-2.67-.14-.23-.52-.37-1.08-.65Z"/>
        </g>
      </g>
      <g>
        <ellipse class="cls-9" cx="270.52" cy="219.67" rx="34.5" ry="3"/>
        <path class="cls-24" d="M353.69,179.85l-37.26-42.68c-2.85-3.26-6.96-5.13-11.28-5.13-.56,0-1.12.03-1.66.09-4.88.54-9.19,3.45-11.53,7.77l-31.42,58.25c-2.78,5.16-2.29,11.51,1.25,16.17,2.82,3.71,7.28,5.92,11.93,5.92h0c.97,0,1.94-.09,2.91-.29.14-.03.29-.06.4-.08l68.68-15.57c5.12-1.16,9.31-4.98,10.94-9.97,1.62-4.99.49-10.54-2.96-14.49Z"/>
        <path class="cls-20" d="M285.21,194.26c4.15,2.66,9.08,4.21,14.38,4.21,17.41,0,27.25-14.71,26.66-27.9,1.83-1.32,3.42-2.97,4.68-4.85-1.68.75-3.49,1.25-5.39,1.48,1.93-1.16,3.42-3,4.12-5.19-1.81,1.08-3.82,1.86-5.95,2.28-1.71-1.82-4.15-2.96-6.85-2.96-6.05,0-10.5,5.65-9.13,11.51-7.79-.39-14.7-4.12-19.33-9.8-2.46,4.22-1.27,9.73,2.9,12.52-1.54-.05-2.99-.47-4.25-1.17-.1,4.35,3.01,8.41,7.52,9.31-1.32.36-2.77.44-4.23.16,1.19,3.73,4.65,6.44,8.76,6.51-3.94,3.09-8.91,4.47-13.88,3.88Z"/>
      </g>
      <g>
        <ellipse class="cls-13" cx="378.53" cy="219.67" rx="34.5" ry="3"/>
        <path class="cls-23" d="M462.53,179.85l-37.26-42.68c-2.85-3.26-6.96-5.13-11.28-5.13-.55,0-1.12.03-1.66.09-4.88.54-9.19,3.45-11.53,7.78l-31.42,58.25c-2.78,5.16-2.29,11.51,1.25,16.17,2.82,3.71,7.28,5.92,11.93,5.92h0c.97,0,1.94-.09,2.91-.29.14-.03.29-.06.4-.08l68.68-15.57c5.12-1.16,9.31-4.98,10.94-9.97,1.62-4.99.49-10.54-2.96-14.49Z"/>
        <path class="cls-20" d="M403.17,183.7c.67.27,1.27.01,1.46-.73.13-.51.46-1.81.6-2.35.2-.74.12-.99-.42-1.63-1.18-1.39-1.93-3.19-1.93-5.74,0-7.39,5.53-14.02,14.41-14.02,7.86,0,12.18,4.8,12.18,11.22,0,8.44-3.73,15.56-9.28,15.56-3.06,0-5.35-2.53-4.62-5.64.88-3.71,2.58-7.71,2.58-10.38,0-2.4-1.29-4.39-3.95-4.39-3.13,0-5.64,3.24-5.64,7.58,0,2.76.93,4.63.93,4.63,0,0-3.2,13.57-3.76,15.95-1.12,4.73-.17,10.53-.09,11.12.05.35.49.43.7.17.29-.38,4.02-4.98,5.28-9.58.36-1.3,2.06-8.04,2.06-8.04,1.02,1.94,3.99,3.65,7.15,3.65,9.41,0,15.79-8.58,15.79-20.05,0-8.68-7.35-16.76-18.53-16.76-13.9,0-20.92,9.97-20.92,18.28,0,5.04,1.91,9.51,5.99,11.18Z"/>
      </g>
      <g>
        <ellipse class="cls-12" cx="270.52" cy="433.67" rx="34.5" ry="3"/>
        <path class="cls-25" d="M353.69,392.97l-37.26-42.68c-2.85-3.26-6.96-5.13-11.28-5.13-.56,0-1.12.03-1.66.09-4.88.54-9.19,3.45-11.53,7.78l-31.42,58.25c-2.78,5.16-2.29,11.51,1.25,16.17,2.82,3.71,7.28,5.92,11.93,5.92h0c.97,0,1.94-.09,2.91-.29.14-.03.29-.06.4-.08l68.68-15.57c5.12-1.16,9.31-4.98,10.94-9.97,1.62-4.99.49-10.54-2.96-14.49Z"/>
        <g>
          <g>
            <rect class="cls-20" x="287.42" y="384.09" width="8.88" height="28.68"/>
            <path class="cls-20" d="M291.81,380.34c2.9,0,5.25-2.37,5.25-5.29s-2.35-5.29-5.25-5.29-5.25,2.37-5.25,5.29,2.35,5.29,5.25,5.29Z"/>
          </g>
          <path class="cls-20" d="M310.48,397.72c0-4.03,1.86-6.43,5.41-6.43,3.26,0,4.83,2.31,4.83,6.43v15.06h8.84v-18.16c0-7.68-4.36-11.4-10.44-11.4s-8.64,4.74-8.64,4.74v-3.86h-8.52v28.68h8.52v-15.06Z"/>
        </g>
      </g>
      <g>
        <ellipse class="cls-4" cx="378.53" cy="326.67" rx="34.5" ry="3"/>
        <path class="cls-32" d="M462.53,286.04l-37.26-42.68c-2.85-3.26-6.96-5.13-11.28-5.13-.55,0-1.12.03-1.66.09-4.88.54-9.19,3.45-11.53,7.78l-31.42,58.25c-2.78,5.16-2.29,11.51,1.25,16.17,2.82,3.71,7.28,5.92,11.93,5.92h0c.97,0,1.94-.09,2.91-.29.14-.03.29-.06.4-.08l68.68-15.57c5.12-1.16,9.31-4.98,10.94-9.97,1.62-4.99.49-10.54-2.96-14.49Z"/>
        <path class="cls-21" d="M441.76,296.78h0s-.02-.02-.05-.05h-.01c-.61-.38-1.22-.44-1.61-.58-.01,0-.02,0-.02-.01-2.63-.83-4.91-2.62-6.61-4.81-.94-1.22-1.74-2.54-2.26-3.95v-.02c-.21-.61-.22-1.28.08-1.69,0,0,.01,0,.01-.01.48-.68,1.35-1.11,2.27-1.45h.01c1.04-.36,2.16-.77,3.08-1.59.01,0,.01-.01.02-.01.14-.13.31-.3.44-.57.02-.06.06-.13.07-.21.07-.25.07-.55-.06-.8h0c-.27-.55-.72-.84-1.07-1.04h-.01c-.57-.34-1.25-.36-1.84-.16h-.01c-.63.19-1.15.42-1.63.48-.01,0-.02,0-.04.01-.68.12-1.34.14-1.85-.05-.01-.07-.01-.22-.04-.41h.01c-.05-1.12.06-2.27.07-3.47h0c.06-1.83.13-3.7-.14-5.58v-.02c-.59-3.18-2.63-5.92-5.22-7.74-1.88-1.33-4.12-2.06-6.39-2.27h0c-.78-.07-1.54-.09-2.29-.09-3.07.02-6.25.83-8.73,2.77-1.87,1.46-3.33,3.39-4.26,5.55h0c-.88,2.23-.8,4.59-.69,6.78h0c.07,1.54.24,3.03.11,4.45-.01.05-.01.07-.02.09-.69.13-1.45.08-2.19-.06h-.01c-.51-.08-1.06-.29-1.68-.47-.01,0-.02,0-.04-.01-.6-.13-1.19.04-1.63.37-.01,0-.02,0-.02.01-.01.01-.02.01-.02.02-.37.23-.87.64-.9,1.34-.01.05,0,.08,0,.13.01,0,0,.01.01.01.07.41.33.71.56.91.23.2.44.33.57.43.01,0,.02.01.03.02,1.12.75,2.36,1.07,3.44,1.49h0c.75.33,1.39.83,1.54,1.47.19.8-.16,1.74-.61,2.63h0c-1.21,2.39-3.01,4.46-5.22,5.99-1.17.79-2.47,1.39-3.84,1.75-.01,0-.04.01-.06.02-.28.11-.94.16-1.36.79-.02.05-.05.09-.07.15-.14.4.02.83.22,1.07.19.22.4.36.58.46.01,0,.02.01.04.01,1.14.66,2.4.94,3.54,1.23.01,0,.01.01.01.01.83.18,1.6.28,2.21.55.02.05.09.26.23.61.21.63.3,1.36.54,2.14.07.21.26.38.48.43.52.12.8-.06.85-.07h.07c1.91-.34,3.84-.63,5.6-.2h0c1.84.49,3.45,1.76,5.26,2.84h0c1.2.76,2.59,1.49,4.2,1.55h.01c1.21.07,2.39-.01,3.55-.08h.02c.99-.09,1.95-.43,2.8-.96.01-.01.03-.02.04-.02,1.9-1.08,3.58-2.38,5.43-3.2h.01c.59-.21,1.35-.2,2.18-.26h.02c1.54-.05,3.06.04,4.59.23.05.01.11.01.15,0,.21-.02.42-.16.53-.29.12-.13.14-.24.16-.33.05-.15.08-.22.01-.09.02-.05.05-.08.06-.13.28-.92.43-1.75.89-2.26.2-.2.55-.29.94-.29h.08c1.33-.15,2.52-.63,3.65-1.03.01-.01.04-.01.05-.01.42-.19,1.05-.4,1.48-.99h0c.36-.51.19-1.2-.31-1.5h0Z"/>
      </g>
      <g>
        <ellipse class="cls-14" cx="378.53" cy="433.67" rx="34.5" ry="3"/>
        <path class="cls-28" d="M462.53,392.97l-37.26-42.68c-2.85-3.26-6.96-5.13-11.28-5.13-.55,0-1.12.03-1.66.09-4.88.54-9.19,3.45-11.53,7.78l-31.42,58.25c-2.78,5.16-2.29,11.51,1.25,16.17,2.82,3.71,7.28,5.92,11.93,5.92h0c.97,0,1.94-.09,2.91-.29.14-.03.29-.06.4-.08l68.68-15.57c5.12-1.16,9.31-4.98,10.94-9.97,1.62-4.99.49-10.54-2.96-14.49Z"/>
        <path class="cls-20" d="M392.99,391.28c0,13.2,10.7,23.89,23.89,23.89,1.53,0,3.03-.15,4.48-.43,2.1,1.27,4.56,2,7.2,2,7.7,0,13.94-6.24,13.94-13.95,0-2.7-.77-5.22-2.1-7.36.24-1.35.37-2.75.37-4.17,0-13.2-10.7-23.89-23.89-23.89-1.5,0-2.97.14-4.4.41-2.11-1.29-4.59-2.03-7.24-2.03-7.7,0-13.95,6.24-13.95,13.95,0,2.69.76,5.19,2.08,7.32-.25,1.38-.38,2.79-.38,4.24ZM417.14,374.31c7.71.45,12.22,3.84,12.66,7.01.21,2.07-1.16,3.68-3.55,3.68-3.49,0-3.84-4.65-9.84-4.65-2.71,0-4.99,1.12-4.99,3.57,0,5.1,19.23,2.14,19.23,13.37,0,6.48-5.18,10.72-12.92,10.72-6.8,0-13.64-3.08-13.61-8.39.01-1.6,1.21-3.07,2.8-3.07,4.01,0,3.97,5.95,10.35,5.95,4.47,0,6-2.44,6-4.14,0-6.15-19.35-2.38-19.35-13.94,0-6.26,5.14-10.57,13.22-10.1Z"/>
      </g>
      <g>
        <ellipse class="cls-15" cx="162.51" cy="219.67" rx="34.5" ry="3"/>
        <path class="cls-27" d="M242.92,179.85l-37.26-42.68c-2.85-3.26-6.96-5.13-11.28-5.13-.55,0-1.12.03-1.66.09-4.88.54-9.19,3.45-11.52,7.77l-31.42,58.25c-2.78,5.16-2.29,11.51,1.25,16.17,2.82,3.71,7.28,5.92,11.93,5.92h0c.97,0,1.94-.09,2.91-.29.14-.03.29-.06.4-.08l68.68-15.57c5.12-1.16,9.31-4.98,10.94-9.97,1.62-4.99.49-10.54-2.96-14.49Z"/>
        <path class="cls-20" d="M190.76,205.15h10.44v-26.15h7.29l.78-8.76h-8.06v-4.99c0-2.06.42-2.88,2.41-2.88h5.65v-9.09h-7.23c-7.77,0-11.27,3.42-11.27,9.97v6.98h-5.43v8.87h5.43v26.04Z"/>
      </g>
      <g>
        <ellipse class="cls-7" cx="270.52" cy="326.67" rx="34.5" ry="3"/>
        <path class="cls-30" d="M353.69,286.04l-37.26-42.68c-2.85-3.26-6.96-5.13-11.28-5.13-.56,0-1.12.03-1.66.09-4.88.54-9.19,3.45-11.53,7.77l-31.42,58.25c-2.78,5.16-2.29,11.51,1.25,16.17,2.82,3.71,7.28,5.92,11.93,5.92h0c.97,0,1.94-.09,2.91-.29.14-.03.29-.06.4-.08l68.68-15.57c5.12-1.16,9.31-4.98,10.94-9.97,1.62-4.99.49-10.54-2.96-14.49Z"/>
        <path class="cls-20" d="M308.06,259.26c-13.85,0-25.08,11.23-25.08,25.08s11.23,25.08,25.08,25.08,25.08-11.23,25.08-25.08-11.23-25.08-25.08-25.08ZM319.6,295.5c-.5.75-1.38,1-2.13.5-5.89-3.64-13.29-4.39-22.07-2.38-.88.25-1.63-.38-1.88-1.13-.25-.88.38-1.63,1.13-1.88,9.53-2.13,17.81-1.25,24.33,2.76.88.38,1,1.38.63,2.13ZM322.61,288.6c-.63.88-1.76,1.25-2.63.63-6.77-4.14-17.05-5.39-24.96-2.88-1,.25-2.13-.25-2.38-1.25-.25-1,.25-2.13,1.25-2.38,9.15-2.76,20.44-1.38,28.21,3.39.75.38,1.13,1.63.5,2.51ZM322.86,281.58c-8.03-4.77-21.44-5.27-29.09-2.88-1.25.38-2.51-.38-2.88-1.5-.38-1.25.37-2.51,1.5-2.88,8.9-2.63,23.57-2.13,32.85,3.39,1.13.63,1.51,2.13.88,3.26-.63.88-2.13,1.25-3.26.63Z"/>
      </g>
      <g>
        <ellipse class="cls-11" cx="162.51" cy="433.67" rx="34.5" ry="3"/>
        <path class="cls-16" d="M242.92,392.97l-37.26-42.68c-2.85-3.26-6.96-5.13-11.28-5.13-.55,0-1.12.03-1.66.09-4.88.54-9.19,3.45-11.52,7.78l-31.42,58.25c-2.78,5.16-2.29,11.51,1.25,16.17,2.82,3.71,7.28,5.92,11.93,5.92h0c.97,0,1.94-.09,2.91-.29.14-.03.29-.06.4-.08l68.68-15.57c5.12-1.16,9.31-4.98,10.94-9.97,1.62-4.99.49-10.54-2.96-14.49Z"/>
        <path class="cls-20" d="M214.53,370.22c-6.74-.22-11.31,3.59-13.7,11.42,1.23-.53,2.44-.8,3.6-.8,2.47,0,3.57,1.39,3.28,4.17-.14,1.68-1.24,4.13-3.28,7.35-2.04,3.22-3.57,4.83-4.59,4.83-1.31,0-2.51-2.48-3.6-7.44-.37-1.46-1.02-5.17-1.97-11.15-.88-5.54-3.21-8.13-6.99-7.77-1.6.15-4.01,1.6-7.21,4.37-2.33,2.11-4.7,4.23-7.1,6.34l2.29,2.95c2.18-1.53,3.46-2.29,3.82-2.29,1.67,0,3.23,2.62,4.69,7.86,1.31,4.8,2.62,9.6,3.93,14.41,1.96,5.24,4.36,7.86,7.2,7.86,4.58,0,10.17-4.3,16.79-12.9,6.4-8.24,9.71-14.72,9.92-19.46.29-6.34-2.07-9.59-7.07-9.73Z"/>
      </g>
      <g>
        <ellipse class="cls-6" cx="54.5" cy="433.67" rx="34.5" ry="3"/>
        <path class="cls-31" d="M133.57,392.97l-37.27-42.68c-2.85-3.26-6.96-5.13-11.28-5.13-.55,0-1.12.03-1.66.09-4.88.54-9.19,3.45-11.52,7.78l-31.42,58.25c-2.78,5.16-2.29,11.51,1.25,16.17,2.82,3.71,7.28,5.92,11.93,5.92h0c.97,0,1.94-.09,2.91-.29.14-.03.29-.06.4-.08l68.68-15.57c5.12-1.16,9.31-4.98,10.94-9.97,1.62-4.99.49-10.54-2.96-14.49Z"/>
        <path class="cls-20" d="M78.32,403.95c0,2.22.23,3.92.7,5.09.46,1.17,1.3,2.27,2.51,3.31,1.2,1.04,2.66,1.84,4.37,2.4,1.71.56,3.67.84,5.89.84,1.96,0,3.78-.2,5.46-.59,1.68-.39,3.57-1.08,5.64-2.06v-7.65c-2.44,1.6-4.89,2.4-7.35,2.4-1.38,0-2.62-.32-3.69-.97-.81-.48-1.37-1.12-1.67-1.92-.3-.8-.45-2.61-.45-5.43v-12.48h11.55v-7.64h-11.55v-12.32h-6.89c-.31,2.51-.88,4.57-1.7,6.19-.82,1.62-1.91,3.01-3.27,4.17-1.36,1.16-2.99,2.04-4.89,2.67v6.93h5.33v17.05Z"/>
      </g>
      <g>
        <ellipse class="cls-8" cx="54.5" cy="326.67" rx="34.5" ry="3"/>
        <path class="cls-17" d="M133.57,286.04l-37.27-42.68c-2.85-3.26-6.96-5.13-11.28-5.13-.55,0-1.12.03-1.66.09-4.88.54-9.19,3.45-11.52,7.78l-31.42,58.25c-2.78,5.16-2.29,11.51,1.25,16.17,2.82,3.71,7.28,5.92,11.93,5.92h0c.97,0,1.94-.09,2.91-.29.14-.03.29-.06.4-.08l68.68-15.57c5.12-1.16,9.31-4.98,10.94-9.97,1.62-4.99.49-10.54-2.96-14.49Z"/>
        <path class="cls-20" d="M105.47,266.89h-35.06c-4.26,0-7.71,3.45-7.71,7.71v19.48c0,4.26,3.45,7.71,7.71,7.71h35.06c4.26,0,7.71-3.45,7.71-7.71v-19.48c0-4.26-3.45-7.71-7.71-7.71ZM82.62,291.94v-15.42l13.36,7.71-13.36,7.71Z"/>
      </g>
      <g>
        <ellipse class="cls-5" cx="54.5" cy="219.67" rx="34.5" ry="3"/>
        <path class="cls-1" d="M133.57,179.85l-37.27-42.68c-2.85-3.26-6.96-5.13-11.28-5.13-.55,0-1.12.03-1.66.09-4.88.54-9.19,3.45-11.52,7.78l-31.42,58.25c-2.78,5.16-2.29,11.51,1.25,16.17,2.82,3.71,7.28,5.92,11.93,5.92h0c.97,0,1.94-.09,2.91-.29.14-.03.29-.06.4-.08l68.68-15.57c5.12-1.16,9.31-4.98,10.94-9.97,1.62-4.99.49-10.54-2.96-14.49Z"/>
        <g>
          <path class="cls-20" d="M87.94,161.72c6.28,0,7.02.02,9.5.14,2.29.11,3.54.49,4.37.81,1.1.43,1.88.94,2.7,1.76.82.82,1.33,1.61,1.76,2.7.32.83.71,2.07.81,4.37.11,2.48.14,3.22.14,9.5s-.02,7.02-.14,9.5c-.1,2.29-.49,3.54-.81,4.37-.43,1.1-.94,1.88-1.76,2.7-.82.82-1.61,1.33-2.7,1.76-.83.32-2.07.71-4.37.81-2.48.11-3.22.14-9.5.14s-7.02-.02-9.5-.14c-2.29-.1-3.54-.49-4.37-.81-1.1-.43-1.88-.94-2.7-1.76-.82-.82-1.33-1.61-1.76-2.7-.32-.83-.71-2.07-.81-4.37-.11-2.48-.14-3.22-.14-9.5s.02-7.02.14-9.5c.11-2.29.49-3.54.81-4.37.43-1.1.94-1.88,1.76-2.7.82-.82,1.61-1.33,2.7-1.76.83-.32,2.07-.7,4.37-.81,2.48-.11,3.22-.14,9.5-.14M87.94,157.48c-6.39,0-7.19.03-9.7.14-2.5.11-4.21.51-5.71,1.09-1.55.6-2.86,1.41-4.17,2.71-1.31,1.31-2.11,2.62-2.71,4.17-.58,1.5-.98,3.21-1.09,5.71-.12,2.51-.14,3.31-.14,9.7s.03,7.19.14,9.7c.11,2.5.51,4.21,1.09,5.71.6,1.55,1.41,2.86,2.71,4.17,1.31,1.31,2.62,2.11,4.17,2.71,1.5.58,3.21.98,5.71,1.09,2.51.11,3.31.14,9.7.14s7.19-.03,9.7-.14c2.5-.11,4.21-.51,5.71-1.09,1.55-.6,2.86-1.41,4.17-2.71,1.31-1.31,2.11-2.62,2.71-4.17.58-1.5.98-3.21,1.09-5.71.11-2.51.14-3.31.14-9.7s-.03-7.19-.14-9.7c-.12-2.5-.51-4.21-1.09-5.71-.6-1.55-1.4-2.86-2.71-4.17-1.31-1.31-2.62-2.11-4.17-2.71-1.5-.58-3.21-.98-5.71-1.09-2.51-.11-3.31-.14-9.7-.14"/>
          <path class="cls-20" d="M87.94,168.92c-6.67,0-12.08,5.41-12.08,12.08s5.41,12.08,12.08,12.08,12.08-5.41,12.08-12.08-5.41-12.08-12.08-12.08M87.94,188.84c-4.33,0-7.84-3.51-7.84-7.84s3.51-7.84,7.84-7.84,7.84,3.51,7.84,7.84-3.51,7.84-7.84,7.84"/>
          <path class="cls-20" d="M103.32,168.45c0,1.56-1.26,2.82-2.82,2.82s-2.82-1.26-2.82-2.82,1.26-2.82,2.82-2.82,2.82,1.26,2.82,2.82"/>
        </g>
      </g>
    </g>
    <g id="Designed_by_Freepik" data-name="Designed by Freepik">
      <g>
        <g>
          <g>
            <path class="cls-2" d="M261.44,464.89c-.49.5-.91,1.05-1.25,1.65l-.53-.27c-.08-.34-.4-.57-.75-.53-.37.04-.64.38-.6.76.04.38.38.64.76.6.07,0,.14-.03.21-.06l.51.27c-.28.63-.49,1.29-.61,1.97l.84.15c.26-1.48.96-2.84,2.03-3.93l-.61-.6Z"/>
            <path class="cls-2" d="M267.66,462.29c-.19,0-.39,0-.58.02l-.08-.71c.21-.17.33-.44.3-.73-.05-.45-.46-.76-.9-.71-.45.05-.76.46-.71.9.03.29.21.52.46.64l.08.71c-.81.13-1.59.38-2.33.73l.37.77c1.06-.51,2.2-.76,3.39-.76.56,0,1.12.06,1.67.18l.18-.84c-.61-.13-1.23-.2-1.85-.2Z"/>
            <path class="cls-2" d="M275.13,465.17c.37-.05.64-.39.6-.76s-.39-.64-.76-.6c-.35.04-.61.34-.6.69l-.47.41c-.47-.49-1.01-.92-1.59-1.29l-.46.73c1.29.81,2.29,1.96,2.9,3.31l.78-.35c-.28-.63-.64-1.21-1.07-1.75l.46-.4c.07.01.14.02.22,0Z"/>
            <path class="cls-2" d="M267.04,473.84c-.44.03-.88.04-1.31.04-1,0-1.96-.07-2.81-.2-.44-.07-.96-.18-1.44-.33,1.18,2.11,3.48,3.54,6.1,3.54,3.23,0,5.96-2.17,6.74-5.1-.77.51-1.71.93-2.78,1.27-1.33.42-2.89.69-4.5.78Z"/>
            <path class="cls-2" d="M267.66,464c-3.8,0-6.88,3.02-6.88,6.73,0,.48.05.96.16,1.43.76.55,3.06,1.01,6.05.83,3.26-.2,6-1.08,7.56-2.44,0-.22-.02-.44-.05-.66-.43-3.35-3.37-5.88-6.83-5.88ZM265.21,471.38c-1.15,0-2.09-.94-2.09-2.09s.94-2.09,2.09-2.09,2.09.94,2.09,2.09-.94,2.09-2.09,2.09ZM270.58,470.35c-.85,0-1.54-.69-1.54-1.54s.69-1.54,1.54-1.54,1.54.69,1.54,1.54-.69,1.54-1.54,1.54Z"/>
          </g>
          <path class="cls-2" d="M285.78,466.12c-.33-.13-.91-.35-1.57-.27-.62.08-.96.39-.96,1.14v.98h2.52v1.94h-2.52v6.18h-2.19v-6.18h-1.52v-1.94h1.52v-1.01c0-1.9,1.01-3.15,2.91-3.15.73,0,1.31.14,1.8.35v1.96Z"/>
          <path class="cls-2" d="M291.1,469.89c-.2-.03-.41-.05-.6-.05-1.01,0-1.71.62-1.71,1.83v4.43h-2.19v-8.12h2.12v.89c.51-.76,1.29-1.11,2.29-1.11.47,0,.96.14,1.24.38l-1.15,1.76Z"/>
          <path class="cls-2" d="M299.79,472.02c0,.25-.02.55-.04.74h-5.76c.24,1.17,1.06,1.68,2.09,1.68.7,0,1.47-.29,2.05-.78l1.28,1.41c-.92.85-2.1,1.23-3.46,1.23-2.49,0-4.22-1.69-4.22-4.25s1.68-4.3,4.11-4.3,3.94,1.74,3.95,4.27ZM294,471.26h3.6c-.2-1.04-.83-1.63-1.77-1.63-1.03,0-1.63.62-1.83,1.63Z"/>
          <path class="cls-2" d="M308.45,472.02c0,.25-.02.55-.04.74h-5.76c.23,1.17,1.06,1.68,2.09,1.68.7,0,1.47-.29,2.05-.78l1.28,1.41c-.92.85-2.1,1.23-3.46,1.23-2.49,0-4.22-1.69-4.22-4.25s1.68-4.3,4.11-4.3,3.94,1.74,3.95,4.27ZM302.66,471.26h3.6c-.2-1.04-.83-1.63-1.77-1.63-1.03,0-1.63.62-1.83,1.63Z"/>
          <path class="cls-2" d="M317.9,472.02c0,2.44-1.69,4.27-3.93,4.27-1.09,0-1.86-.43-2.39-1.06v4.2h-2.18v-11.47h2.14v.9c.53-.66,1.31-1.12,2.42-1.12,2.25,0,3.94,1.84,3.94,4.27ZM311.48,472.02c0,1.28.85,2.24,2.09,2.24s2.09-1,2.09-2.24-.8-2.24-2.09-2.24-2.09.96-2.09,2.24Z"/>
          <path class="cls-2" d="M321.42,465.31c0,.79-.61,1.39-1.4,1.39s-1.39-.6-1.39-1.39.6-1.41,1.39-1.41,1.4.62,1.4,1.41ZM321.12,476.09h-2.19v-8.12h2.19v8.12Z"/>
          <path class="cls-2" d="M324.78,470.86l3.06-2.89h2.68l-3.94,3.82,3.96,4.3h-2.69l-3.08-3.29v3.29h-2.19v-12.07h2.19v6.84Z"/>
        </g>
        <g>
          <path class="cls-2" d="M175.73,476.02v-1.19c-.6.81-1.58,1.39-2.7,1.39-2.09,0-3.57-1.59-3.57-4.2s1.46-4.21,3.57-4.21c1.08,0,2.06.53,2.7,1.41v-4.26h1.24v11.06h-1.24ZM175.73,473.84v-3.63c-.45-.7-1.41-1.29-2.41-1.29-1.61,0-2.57,1.33-2.57,3.1s.96,3.08,2.57,3.08c1,0,1.96-.56,2.41-1.26Z"/>
          <path class="cls-2" d="M178.58,472c0-2.32,1.66-4.2,3.95-4.2,2.42,0,3.85,1.89,3.85,4.3v.32h-6.49c.1,1.51,1.16,2.77,2.89,2.77.91,0,1.84-.37,2.47-1.01l.6.81c-.8.8-1.87,1.23-3.18,1.23-2.37,0-4.08-1.71-4.08-4.21ZM182.51,468.83c-1.71,0-2.55,1.44-2.62,2.67h5.26c-.02-1.19-.81-2.67-2.64-2.67Z"/>
          <path class="cls-2" d="M187.27,474.95l.65-.9c.53.61,1.54,1.14,2.64,1.14,1.23,0,1.89-.58,1.89-1.38,0-1.94-4.96-.75-4.96-3.72,0-1.24,1.08-2.3,2.99-2.3,1.36,0,2.32.51,2.97,1.16l-.58.86c-.48-.58-1.36-1.01-2.39-1.01-1.09,0-1.77.55-1.77,1.26,0,1.76,4.96.6,4.96,3.71,0,1.34-1.08,2.42-3.15,2.42-1.31,0-2.42-.4-3.23-1.26Z"/>
          <path class="cls-2" d="M195.05,466.03c0-.46.38-.85.83-.85s.85.38.85.85-.38.83-.85.83-.83-.36-.83-.83ZM195.27,476.02v-8.01h1.24v8.01h-1.24Z"/>
          <path class="cls-2" d="M198.57,478.07l.63-.93c.66.8,1.46,1.09,2.6,1.09,1.33,0,2.57-.65,2.57-2.4v-1.15c-.58.81-1.56,1.43-2.69,1.43-2.09,0-3.57-1.56-3.57-4.15s1.46-4.16,3.57-4.16c1.08,0,2.04.53,2.69,1.41v-1.21h1.24v7.78c0,2.65-1.86,3.48-3.81,3.48-1.36,0-2.29-.27-3.23-1.2ZM204.37,473.71v-3.5c-.43-.7-1.39-1.29-2.39-1.29-1.61,0-2.57,1.28-2.57,3.05s.96,3.05,2.57,3.05c1,0,1.96-.61,2.39-1.31Z"/>
          <path class="cls-2" d="M213.1,476.02v-5.24c0-1.41-.71-1.86-1.79-1.86-.98,0-1.91.6-2.37,1.24v5.85h-1.24v-8.01h1.24v1.16c.56-.66,1.66-1.36,2.85-1.36,1.68,0,2.55.85,2.55,2.59v5.62h-1.24Z"/>
          <path class="cls-2" d="M215.95,472c0-2.32,1.66-4.2,3.95-4.2,2.42,0,3.85,1.89,3.85,4.3v.32h-6.49c.1,1.51,1.16,2.77,2.89,2.77.91,0,1.84-.37,2.47-1.01l.6.81c-.8.8-1.87,1.23-3.18,1.23-2.37,0-4.08-1.71-4.08-4.21ZM219.88,468.83c-1.71,0-2.55,1.44-2.62,2.67h5.26c-.02-1.19-.81-2.67-2.64-2.67Z"/>
          <path class="cls-2" d="M231.15,476.02v-1.19c-.6.81-1.58,1.39-2.7,1.39-2.09,0-3.57-1.59-3.57-4.2s1.46-4.21,3.57-4.21c1.08,0,2.06.53,2.7,1.41v-4.26h1.24v11.06h-1.24ZM231.15,473.84v-3.63c-.45-.7-1.41-1.29-2.41-1.29-1.61,0-2.57,1.33-2.57,3.1s.96,3.08,2.57,3.08c1,0,1.96-.56,2.41-1.26Z"/>
          <path class="cls-2" d="M238.33,476.02v-11.06h1.24v4.26c.65-.88,1.61-1.41,2.7-1.41,2.09,0,3.57,1.66,3.57,4.21s-1.48,4.2-3.57,4.2c-1.13,0-2.11-.58-2.7-1.39v1.19h-1.24ZM241.96,475.1c1.63,0,2.59-1.31,2.59-3.08s-.96-3.1-2.59-3.1c-.98,0-1.96.6-2.39,1.29v3.63c.43.7,1.41,1.26,2.39,1.26Z"/>
          <path class="cls-2" d="M247.2,478.02c.18.08.48.13.68.13.55,0,.91-.18,1.19-.85l.53-1.21-3.35-8.09h1.34l2.67,6.57,2.65-6.57h1.36l-4.01,9.64c-.48,1.16-1.29,1.61-2.36,1.63-.27,0-.68-.05-.91-.12l.2-1.13Z"/>
        </g>
      </g>
    </g>
  </g>
</svg>