<?xml version="1.0" encoding="UTF-8"?>
<svg id="OBJECTS" xmlns="http://www.w3.org/2000/svg" viewBox="0 0 418.91 448.2">
  <defs>
    <style>
      .cls-1 {
        stroke-width: .75px;
      }

      .cls-1, .cls-2, .cls-3, .cls-4 {
        fill: none;
        stroke: #121d65;
        stroke-miterlimit: 10;
      }

      .cls-5 {
        fill: #743300;
      }

      .cls-6 {
        fill: #ff7d6c;
      }

      .cls-7 {
        fill: #3d1000;
      }

      .cls-2 {
        stroke-width: .5px;
      }

      .cls-8 {
        fill: #fff;
      }

      .cls-9 {
        fill: #00ab00;
      }

      .cls-10 {
        fill: #ffa17c;
      }

      .cls-11 {
        fill: #1959aa;
      }

      .cls-12 {
        fill: #37ba00;
      }

      .cls-13 {
        fill: #121d65;
      }

      .cls-14 {
        fill: #ffcf00;
      }

      .cls-15 {
        fill: #048e04;
      }

      .cls-3 {
        stroke-width: 1.5px;
      }

      .cls-16 {
        fill: #ffe800;
      }

      .cls-4 {
        stroke-width: 2px;
      }
    </style>
  </defs>
  <g>
    <path class="cls-9" d="M1.04,175.01s-.46-7.9,1.86-12.08c2.32-4.18,7.44-7.44,7.44-7.44,0,0,.46-8.83,3.72-11.62,3.25-2.79,6.51-4.65,12.55-7.44,6.04-2.79,13.01-4.65,15.33-3.72,2.32.93,6.97,2.32,6.97,2.32,0,0-5.11-8.83-5.11-13.48s3.72-11.15,2.79-13.94c-.93-2.79-6.04-8.83-6.04-12.08s-1.86-9.76,1.39-9.76,11.15,4.65,11.15.46-8.83-6.04-9.29-7.9,3.25-2.32,6.04-3.72c2.79-1.39,10.22.93,14.41-2.32,4.18-3.25,7.9-3.72,11.15-.93,3.25,2.79,5.11,7.9,6.51,9.76,1.39,1.86-.46,6.97,3.72,5.58,4.18-1.39,4.65-4.18,9.76-7.9s8.83-3.25,12.08-6.04c3.25-2.79,8.36-3.72,6.04-5.58-2.32-1.86-5.11-3.25-6.04-6.97-.93-3.72-4.65-10.22-4.65-10.22,0,0,3.25-1.39,11.62.93,8.36,2.32,6.51-1.86,14.41-3.25,7.9-1.39,9.29.46,13.48-3.72,4.18-4.18,7.9-8.36,9.29-5.58,1.39,2.79,4.65,9.29,4.18,13.01-.46,3.72-2.32,11.62-.93,16.26,1.39,4.65,3.72,12.08,7.43,10.22,3.72-1.86,5.11-3.25,10.22-3.72,5.11-.46,13.48-3.25,15.33-1.86s9.29,7.44,9.76,3.72c.46-3.72-6.04-6.51-1.39-8.36,4.65-1.86,6.51-3.72,10.69-2.32,4.18,1.39,8.36,8.36,12.08,6.97,3.72-1.39,7.44.93,9.29-1.86,1.86-2.79,16.73-20.91,17.66-19.05.93,1.86,7.44,24.63,9.29,24.63s7.9,1.86,7.43,4.18c-.46,2.32-1.39,5.58-3.25,6.04-1.86.46-19.98,13.48-16.73,13.94,3.25.46,11.15-3.25,13.01-3.25s8.36.93,10.69,1.39c2.32.46,7.44,2.79,7.44,4.65,0,0,.24,2.05-.32,3.71-.55,1.66-1.94,1.94-3.88,4.16-1.94,2.22-5.55,5.82-6.38,7.76-.83,1.94-4.16,7.76-1.39,6.38,2.77-1.39,7.21-8.04,8.87-9.7s3.88-4.99,6.65-6.65,4.99-2.77,4.99-2.77c0,0,4.44,1.11,9.43,2.5,4.99,1.39,6.38,1.11,11.09,3.05,4.71,1.94,7.49.83,9.43,4.71,1.94,3.88,3.6,4.99,3.33,8.04-.28,3.05-6.1,8.87,0,8.32,6.1-.55-.83-4.16,9.43-3.88,10.26.28,14.97,5.27,23.29,5.82,8.32.55,4.71-2.5,12.2.55,7.49,3.05,10.81,12.75,21.35,16.36,10.54,3.6,21.35,11.37,25.23,18.02s8.04,11.37,7.21,18.58c-.83,7.21,1.39,13.31-4.44,19.69s-10.54,9.98-14.42,13.86c-3.88,3.88-10.81,9.15-13.59,13.03-2.77,3.88-8.32,7.49-11.65,9.7-3.33,2.22-3.6-1.66-5.27,3.05-1.66,4.71-3.33,3.6-3.33,12.48s2.5,9.98-.28,16.64c-2.77,6.65-4.44,4.99-4.99,10.54-.55,5.55.28,6.93-2.5,13.31-2.77,6.38-15.8,31.61-20.52,36.04-4.71,4.44-5.55.83-8.87,4.99s-6.38,7.49-9.7,6.65c-3.33-.83-7.21-3.33-12.75-2.5-5.55.83-13.59,5.55-16.08,5.82-2.5.28-11.09.83-15.25,4.71-4.16,3.88-15.53,7.49-16.08,14.42-.55,6.93,1.66,24.12-3.05,28.56-4.71,4.44-9.7,2.77-13.59,9.43-3.88,6.65-6.65,16.08-10.81,19.13-4.16,3.05-8.04-.55-10.81,5.27s-5.55,11.92-8.04,13.59-3.05.83-4.44-1.94,3.6-6.38,2.22-9.15c-1.39-2.77-2.77-5.82-4.71-6.65-1.94-.83-3.33-1.94-8.04-6.1-4.71-4.16-9.43-7.76-12.2-10.81-2.77-3.05-6.1.83-7.21-1.39-1.11-2.22.28-2.77,3.6-7.76s8.87-11.92,11.92-13.86c3.05-1.94.55,1.39,4.71-1.94,4.16-3.33,3.05-3.05,6.93-4.99,3.88-1.94,4.16.83,6.93-2.77,2.77-3.6,3.05-8.04,2.77-10.81-.28-2.77-2.77-3.6-6.93-3.88s-4.71.55-3.88-3.88c.83-4.44,3.6-3.88,3.6-6.65s1.11-6.65-.55-7.76c-1.66-1.11-7.49,0-7.49,0,0,0-3.05-1.11-3.33-4.16-.28-3.05,1.39-9.98,0-12.48-1.39-2.5-2.22-4.44-6.65-4.44s-11.92,2.77-14.42-.55c-2.5-3.33-1.66-3.6-2.22-10.81-.55-7.21-1.94-6.65-.83-13.03,1.11-6.38,1.39-5.82,3.33-11.09,1.94-5.27,3.6-9.98,1.39-10.81s-4.44-2.22-4.71-5.55c-.28-3.33.83-5.82-.28-7.76s-1.94-2.5-4.44-2.77c-2.5-.28-13.86,1.39-14.42-1.94-.55-3.33,1.39-4.99.28-6.93-1.11-1.94-2.22-2.77-2.5-6.1s.55-3.05-.83-8.04c-1.39-4.99-1.39-5.27-4.16-5.55-2.77-.28-4.99,0-9.43-1.39-4.44-1.39-6.1-4.44-11.09-6.1-4.99-1.66-8.04-4.16-11.09-4.44l-3.05-.28s-4.16-3.05-6.1-4.71c-1.94-1.66-2.77-3.05-3.88-6.65-1.11-3.6-1.11-7.49-1.39-10.26s3.33-7.76-.55-6.93c-3.88.83-5.27,1.11-10.26,4.16-4.99,3.05-10.81,3.88-14.42,6.65-3.6,2.77-3.88,4.44-6.93,4.44s-12.75-1.66-17.19-1.66-5.82.55-6.1-3.05c-.28-3.6,1.11-6.1,1.66-8.32.55-2.22,1.66-6.65-1.39-4.16s-5.82,6.93-8.04,7.21c-2.22.28-4.71-.28-5.82-1.39-1.11-1.11,0-2.5-3.88-2.77-3.88-.28-4.16,3.05-6.65-.55-2.5-3.6-1.11-3.6-3.05-6.65-1.94-3.05-5.55-8.6-6.65-9.15-1.11-.55-5.63-.62-5.45-2.94Z"/>
    <g>
      <path class="cls-15" d="M232.53,142.65s4.6-6,6.4-4.2c1.8,1.8-6.2,7.6-6.4,4.2Z"/>
      <path class="cls-15" d="M241.94,132.65s2.2-4.4,3.8-3c1.6,1.4-2.8,3.8-3.8,3Z"/>
      <path class="cls-15" d="M244.14,137.05s3.4-4,4-2.6c.6,1.4-3.4,4.2-4,2.6Z"/>
      <path class="cls-15" d="M248.54,128.65s3.2-5,4.2-3.6c1,1.4-3,5.6-4.2,3.6Z"/>
      <path class="cls-15" d="M257.54,115.04c1.6,1-1,6.4-4,6-3-.4,2.4-7,4-6Z"/>
      <path class="cls-15" d="M265.74,126.45c1.6,1.6-1.6,6.6-5.6,6.4-4-.2,4-8,5.6-6.4Z"/>
      <path class="cls-15" d="M255.54,137.65c1.4.8-1.6,5.2-4.6,5-3-.2,3.2-5.8,4.6-5Z"/>
      <path class="cls-15" d="M244.74,143.65c1.2,1-.6,7-4.4,6.8-3.8-.2,3.2-7.8,4.4-6.8Z"/>
    </g>
    <g>
      <path class="cls-15" d="M195.44,310c0,2.83-2.35,8-7.3,6.59-4.94-1.41,7.3-9.42,7.3-6.59Z"/>
      <path class="cls-15" d="M202.35,305.71c.71,2.59-.47,5.65-4.24,5.65s3.53-8.24,4.24-5.65Z"/>
      <path class="cls-15" d="M212.68,300.93c.47,2.35-4.71,7.06-4.71,4.71,0-2.12,4.24-7.06,4.71-4.71Z"/>
      <path class="cls-15" d="M216.04,311.41c.47,2.35-4.71,7.06-4.71,4.71,0-2.12,4.24-7.06,4.71-4.71Z"/>
      <path class="cls-15" d="M197.01,317.52c.47,2.35-4.71,7.06-4.71,4.71,0-2.12,4.24-7.06,4.71-4.71Z"/>
      <path class="cls-15" d="M207.04,310.76c1.18,2.12-1.18,6.36-4.94,6.59-3.77.24,3.77-8.71,4.94-6.59Z"/>
      <path class="cls-15" d="M222.97,295.92c1.18,2.12-1.18,6.36-4.94,6.59-3.77.24,3.77-8.71,4.94-6.59Z"/>
    </g>
    <path class="cls-15" d="M237.69,179.92s-8.82-10.08-5.8-10.33c3.02-.25,9.33,6.3,9.33,6.3,0,0-3.53-7.56-1.51-5.8,2.02,1.76,3.28,4.54,3.28,4.54,0,0,.5-12.1,4.03-11.34,3.53.76,4.28,11.34,4.28,11.34,0,0,2.52-8.82,5.54-6.05,3.02,2.77-1.26,11.85-1.26,11.85,0,0-17.9-1.26-17.9-.5Z"/>
    <g>
      <path class="cls-12" d="M115.37,113.85c19.04,6.35,32.13,24.5,50.86,31.71,19.93,7.67,43.11,1.33,60.45-11.15,13.7-9.86,24.42-23.08,34.22-36.93-2.16-.29-4.27-.53-5.2-.53-1.86,0-9.76,3.72-13.01,3.25-3.25-.46,14.87-13.48,16.73-13.94,1.86-.46,2.79-3.72,3.25-6.04.46-2.32-5.58-4.18-7.43-4.18s-8.36-22.77-9.29-24.63c-.93-1.86-15.8,16.26-17.66,19.05-1.86,2.79-5.58.46-9.29,1.86s-7.9-5.58-12.08-6.97c-4.18-1.39-6.04.46-10.69,2.32-4.65,1.86,1.86,4.65,1.39,8.36-.46,3.72-7.9-2.32-9.76-3.72s-10.22,1.39-15.33,1.86c-5.11.46-6.51,1.86-10.22,3.72-3.72,1.86-6.04-5.58-7.44-10.22-1.39-4.65.46-12.55.93-16.26.46-3.72-2.79-10.22-4.18-13.01-1.39-2.79-5.11,1.39-9.29,5.58-4.18,4.18-5.58,2.32-13.48,3.72-7.9,1.39-6.04,5.58-14.41,3.25-8.36-2.32-11.62-.93-11.62-.93,0,0,3.72,6.51,4.65,10.22s3.72,5.11,6.04,6.97c2.32,1.86-2.79,2.79-6.04,5.58-3.25,2.79-6.97,2.32-12.08,6.04-5.11,3.72-5.58,6.51-9.76,7.9-4.18,1.39-2.32-3.72-3.72-5.58-1.39-1.86-3.25-6.97-6.51-9.76-3.25-2.79-6.97-2.32-11.15.93s-11.62.93-14.41,2.32c-2.79,1.39-6.51,1.86-6.04,3.72.46,1.86,9.29,3.72,9.29,7.9s-7.9-.46-11.15-.46-1.39,6.51-1.39,9.76,5.11,9.29,6.04,12.08c.43,1.29-.14,3.38-.87,5.71,22.53,3.26,47.55-6.86,69.66.51Z"/>
      <path class="cls-15" d="M57.84,108.27s-8.82-10.08-5.8-10.33c3.02-.25,9.33,6.3,9.33,6.3,0,0-3.53-7.56-1.51-5.8,2.02,1.76,3.28,4.54,3.28,4.54,0,0,.5-12.1,4.03-11.34,3.53.76,4.28,11.34,4.28,11.34,0,0,2.52-8.82,5.54-6.05,3.02,2.77-1.26,11.85-1.26,11.85,0,0-17.9-1.26-17.9-.5Z"/>
      <path class="cls-15" d="M267.64,305.41s-8.82-10.08-5.8-10.33c3.02-.25,9.33,6.3,9.33,6.3,0,0-3.53-7.56-1.51-5.8,2.02,1.76,3.28,4.54,3.28,4.54,0,0,.5-12.1,4.03-11.34,3.53.76,4.28,11.34,4.28,11.34,0,0,2.52-8.82,5.54-6.05,3.02,2.77-1.26,11.85-1.26,11.85,0,0-17.9-1.26-17.9-.5Z"/>
      <path class="cls-15" d="M245.93,51.4c-.93-1.86-15.8,16.26-17.66,19.05-1.86,2.79-5.58.46-9.29,1.86s-7.9-5.58-12.08-6.97c-4.18-1.39-6.04.46-10.69,2.32-4.65,1.86,1.86,4.65,1.39,8.36-.46,3.72-7.9-2.32-9.76-3.72s-10.22,1.39-15.33,1.86c-5.11.46-6.51,1.86-10.22,3.72-3.72,1.86-6.04-5.58-7.44-10.22-1.39-4.65.46-12.55.93-16.26.46-3.72-2.79-10.22-4.18-13.01-1.39-2.79-5.11,1.39-9.29,5.58-4.18,4.18-5.58,2.32-13.48,3.72-4.57.81-5.88,2.54-7.78,3.42,3.65,4.69,8.02,9.25,9.7,14.82,2.32,7.67-.83,15.93-.02,23.89.82,8.06,5.76,15.35,12.28,20.16,6.52,4.81,14.49,7.34,22.51,8.51,27.26,3.99,56.28-8.13,72.61-30.31,4.76-6.46,8.48-13.65,13.38-20-2.39-6.77-5.02-15.64-5.58-16.77Z"/>
      <g>
        <path class="cls-15" d="M266.34,358.99c-.3-.39-.6-.78-.91-1.17-15.6-19.07-44.31-26.03-66.91-16.23-1.82.79-3.57,1.68-5.29,2.63.99,1.25,2.36,1.75,2.36,1.75,0,0,5.82-1.11,7.49,0,1.66,1.11.55,4.99.55,7.76s-2.77,2.22-3.6,6.65c-.83,4.44-.28,3.6,3.88,3.88s6.65,1.11,6.93,3.88c.28,2.77,0,7.21-2.77,10.81s-3.05.83-6.93,2.77c-3.88,1.94-2.77,1.66-6.93,4.99s-1.66,0-4.71,1.94c-3.05,1.94-8.6,8.87-11.92,13.86-3.33,4.99-4.71,5.55-3.6,7.76,1.11,2.22,4.44-1.66,7.21,1.39,2.77,3.05,7.49,6.65,12.2,10.81,4.71,4.16,6.1,5.27,8.04,6.1,1.94.83,3.33,3.88,4.71,6.65s-3.6,6.38-2.22,9.15,1.94,3.6,4.44,1.94c2.5-1.66,5.27-7.76,8.04-13.59s6.65-2.22,10.81-5.27c4.16-3.05,6.93-12.48,10.81-19.13,3.88-6.65,8.87-4.99,13.59-9.43,4.71-4.44,2.5-21.63,3.05-28.56.41-5.13,6.75-8.44,11.7-11.39Z"/>
        <path class="cls-15" d="M6.49,177.96c1.11.55,4.71,6.1,6.65,9.15,1.94,3.05.55,3.05,3.05,6.65,2.5,3.6,2.77.28,6.65.55,3.88.28,2.77,1.66,3.88,2.77,1.11,1.11,3.6,1.66,5.82,1.39,2.22-.28,4.99-4.71,8.04-7.21,3.05-2.5,1.94,1.94,1.39,4.16-.55,2.22-1.94,4.71-1.66,8.32.28,3.6,1.66,3.05,6.1,3.05s14.14,1.66,17.19,1.66,3.33-1.66,6.93-4.44c3.6-2.77,9.43-3.6,14.42-6.65,4.99-3.05,6.38-3.33,10.26-4.16,3.88-.83.28,4.16.55,6.93s.28,6.65,1.39,10.26c.26.84.5,1.56.75,2.19,5.58-3.2,11.25-6.28,16.69-9.54,8.45-5.05,16.91-11.09,21.15-19.98,4.24-8.88,2.63-21.24-5.85-26.23-9.4-5.53-21.39.13-32.2-1.29-9.97-1.31-18.07-8.51-27.44-12.16-18.63-7.26-39.74.27-56.98,10.41-1.21.71-2.43,1.44-3.64,2.17-1.47,1.04-4.95,3.72-6.75,6.97-2.32,4.18-1.86,12.08-1.86,12.08-.18,2.32,4.34,2.39,5.45,2.94Z"/>
      </g>
      <path class="cls-12" d="M381.91,234.52c2.77-3.88,9.7-9.15,13.59-13.03,3.88-3.88,8.6-7.49,14.42-13.86,5.82-6.38,3.6-12.48,4.44-19.69.83-7.21-3.33-11.92-7.21-18.58-3.88-6.65-14.7-14.42-25.23-18.02-1.99-.68-3.72-1.58-5.28-2.61-4.78,4.35-9.48,8.78-13.92,13.44-18.08,18.95-32.54,42.06-54.78,55.89-18.88,11.74-41.68,15.6-63.91,15.93-22.51.33-45.08-2.71-67.48-.42-10.34,1.06-20.56,3.26-30.43,6.54,1.15,4.36.41,4.26.67,7.44.28,3.33,1.39,4.16,2.5,6.1,1.11,1.94-.83,3.6-.28,6.93.55,3.33,11.92,1.66,14.42,1.94s3.33.83,4.44,2.77,0,4.44.28,7.76c.28,3.33,2.5,4.71,4.71,5.55s.55,5.55-1.39,10.81c-1.94,5.27-2.22,4.71-3.33,11.09-1.11,6.38.28,5.82.83,13.03.46,5.95-.02,7.18,1.2,9.3.01,0,.03-.02.04-.03,21.89-14.51,41.97-31.77,64.83-44.69,22.86-12.93,49.63-21.4,75.37-16.22,16.99,3.42,32,12.38,46.61,21.98.83-2.19,2.29-2.5,4.37-7.49,2.77-6.65.28-7.76.28-16.64s1.66-7.76,3.33-12.48c1.66-4.71,1.94-.83,5.27-3.05s8.87-5.82,11.65-9.7Z"/>
    </g>
    <path class="cls-4" d="M255.69,96.94c1.86,0,8.36.93,10.69,1.39,2.32.46,7.44,2.79,7.44,4.65,0,0,.24,2.05-.32,3.71-.55,1.66-1.94,1.94-3.88,4.16-1.94,2.22-5.55,5.82-6.38,7.76-.83,1.94-4.16,7.76-1.39,6.38,2.77-1.39,7.21-8.04,8.87-9.7s3.88-4.99,6.65-6.65,4.99-2.77,4.99-2.77c0,0,4.44,1.11,9.43,2.5,4.99,1.39,6.38,1.11,11.09,3.05,4.71,1.94,7.49.83,9.43,4.71,1.94,3.88,3.6,4.99,3.33,8.04-.28,3.05-6.1,8.87,0,8.32,6.1-.55-.83-4.16,9.43-3.88,10.26.28,14.97,5.27,23.29,5.82,8.32.55,4.71-2.5,12.2.55,7.49,3.05,10.81,12.75,21.35,16.36,10.54,3.6,21.35,11.37,25.23,18.02"/>
    <path class="cls-4" d="M113.49,67.2c-2.32-1.86-5.11-3.25-6.04-6.97-.93-3.72-4.65-10.22-4.65-10.22,0,0,3.25-1.39,11.62.93,8.36,2.32,6.51-1.86,14.41-3.25,7.9-1.39,9.29.46,13.48-3.72,4.18-4.18,7.9-8.36,9.29-5.58,1.39,2.79,4.65,9.29,4.18,13.01-.46,3.72-2.32,11.62-.93,16.26,1.39,4.65,3.72,12.08,7.43,10.22,3.72-1.86,5.11-3.25,10.22-3.72,5.11-.46,13.48-3.25,15.33-1.86s9.29,7.44,9.76,3.72c.46-3.72-6.04-6.51-1.39-8.36,4.65-1.86,6.51-3.72,10.69-2.32,4.18,1.39,8.36,8.36,12.08,6.97,3.72-1.39,7.44.93,9.29-1.86"/>
    <path class="cls-4" d="M132.37,232.58c-4.44-1.39-6.1-4.44-11.09-6.1-4.99-1.66-8.04-4.16-11.09-4.44l-3.05-.28s-4.16-3.05-6.1-4.71c-1.94-1.66-2.77-3.05-3.88-6.65-1.11-3.6-1.11-7.49-1.39-10.26s3.33-7.76-.55-6.93c-3.88.83-5.27,1.11-10.26,4.16-4.99,3.05-10.81,3.88-14.42,6.65-3.6,2.77-3.88,4.44-6.93,4.44s-12.75-1.66-17.19-1.66-5.82.55-6.1-3.05c-.28-3.6,1.11-6.1,1.66-8.32.55-2.22,1.66-6.65-1.39-4.16s-5.82,6.93-8.04,7.21c-2.22.28-4.71-.28-5.82-1.39-1.11-1.11,0-2.5-3.88-2.77-3.88-.28-4.16,3.05-6.65-.55-2.5-3.6-1.11-3.6-3.05-6.65-1.94-3.05-5.55-8.6-6.65-9.15-1.11-.55-5.63-.62-5.45-2.94,0,0-.46-7.9,1.86-12.08,2.32-4.18,7.44-7.44,7.44-7.44,0,0,.46-8.83,3.72-11.62,3.25-2.79,6.51-4.65,12.55-7.44,6.04-2.79,13.01-4.65,15.33-3.72,2.32.93,6.97,2.32,6.97,2.32,0,0-5.11-8.83-5.11-13.48s3.72-11.15,2.79-13.94c-.93-2.79-6.04-8.83-6.04-12.08s-1.86-9.76,1.39-9.76,11.15,4.65,11.15.46-8.83-6.04-9.29-7.9,3.25-2.32,6.04-3.72c2.79-1.39,10.22.93,14.41-2.32,4.18-3.25,7.9-3.72,11.15-.93"/>
    <path class="cls-4" d="M168.97,313.54c-.55-7.21-1.94-6.65-.83-13.03,1.11-6.38,1.39-5.82,3.33-11.09,1.94-5.27,3.6-9.98,1.39-10.81s-4.44-2.22-4.71-5.55c-.28-3.33.83-5.82-.28-7.76s-1.94-2.5-4.44-2.77c-2.5-.28-13.86,1.39-14.42-1.94-.55-3.33,1.39-4.99.28-6.93-1.11-1.94-2.22-2.77-2.5-6.1"/>
    <path class="cls-4" d="M270.72,355.96c-4.16,3.88-15.53,7.49-16.08,14.42-.55,6.93,1.66,24.12-3.05,28.56-4.71,4.44-9.7,2.77-13.59,9.43-3.88,6.65-6.65,16.08-10.81,19.13-4.16,3.05-8.04-.55-10.81,5.27s-5.55,11.92-8.04,13.59-3.05.83-4.44-1.94,3.6-6.38,2.22-9.15c-1.39-2.77-2.77-5.82-4.71-6.65-1.94-.83-3.33-1.94-8.04-6.1-4.71-4.16-9.43-7.76-12.2-10.81-2.77-3.05-6.1.83-7.21-1.39-1.11-2.22.28-2.77,3.6-7.76s8.87-11.92,11.92-13.86c3.05-1.94.55,1.39,4.71-1.94,4.16-3.33,3.05-3.05,6.93-4.99,3.88-1.94,4.16.83,6.93-2.77,2.77-3.6,3.05-8.04,2.77-10.81-.28-2.77-2.77-3.6-6.93-3.88s-4.71.55-3.88-3.88c.83-4.44,3.6-3.88,3.6-6.65s1.11-6.65-.55-7.76c-1.66-1.11-7.49,0-7.49,0,0,0-3.05-1.11-3.33-4.16-.28-3.05,1.39-9.98,0-12.48"/>
    <path class="cls-4" d="M409.91,207.62c-5.82,6.38-10.54,9.98-14.42,13.86-3.88,3.88-10.81,9.15-13.59,13.03-2.77,3.88-8.32,7.49-11.65,9.7-3.33,2.22-3.6-1.66-5.27,3.05-1.66,4.71-3.33,3.6-3.33,12.48s2.5,9.98-.28,16.64c-2.77,6.65-4.44,4.99-4.99,10.54-.55,5.55.28,6.93-2.5,13.31-2.77,6.38-15.8,31.61-20.52,36.04-4.71,4.44-5.55.83-8.87,4.99s-6.38,7.49-9.7,6.65"/>
  </g>
  <g>
    <g>
      <path class="cls-7" d="M55.92,226.32c-1.59-4.29,10.49-11.7,14.04-9.4,3.54,2.3,2.62,7.38-3.44,11.19-3.18,2-9,2.5-10.59-1.79Z"/>
      <g>
        <path class="cls-5" d="M60.38,222.78c2.93-1.43,8.33-3.35,8.96-4.14.18-.22.38-.54.58-.88-2.66-2.56-13.18,4.57-13.23,7.79.92-.94,2.21-2.06,3.69-2.78Z"/>
        <path class="cls-5" d="M69.54,219.71c-1.35.69-8.35,3.61-9.39,4.13-.65.32-2.09,1.65-3.08,2.59,2.26,1.98,13.77-3.64,13.37-7.54-.27.35-.57.65-.9.82Z"/>
      </g>
    </g>
    <g>
      <path class="cls-7" d="M342.06,116.76c1.77-3.35,13.03,0,13.57,3.46.54,3.46-3.1,5.7-8.81,4.06-2.99-.86-6.52-4.18-4.76-7.53Z"/>
      <g>
        <path class="cls-5" d="M346.71,117.56c2.5,1.02,6.68,3.29,7.51,3.25.24-.01.54-.06.86-.13.11-3.06-10.11-5.6-12.13-3.86,1.08.05,2.49.22,3.75.74Z"/>
        <path class="cls-5" d="M353.67,121.51c-1.18-.45-6.85-3.15-7.74-3.51-.56-.22-2.17-.38-3.3-.46.03,2.49,9.86,6.49,12.05,4.08-.37.03-.72,0-1.01-.1Z"/>
      </g>
    </g>
    <g>
      <path class="cls-7" d="M348.12,341.59c-.08-3.79,11.42-6.32,13.57-3.55,2.15,2.77.05,6.5-5.75,7.84-3.04.7-7.74-.49-7.82-4.29Z"/>
      <g>
        <path class="cls-5" d="M352.58,340.03c2.69-.32,7.45-.36,8.16-.8.2-.12.45-.32.69-.53-1.39-2.74-11.58,0-12.5,2.51.97-.48,2.29-1.01,3.65-1.18Z"/>
        <path class="cls-5" d="M360.6,340.11c-1.25.17-7.53.56-8.49.68-.6.07-2.09.72-3.12,1.2,1.23,2.17,11.79.9,12.54-2.27-.31.2-.63.35-.93.4Z"/>
      </g>
    </g>
  </g>
  <g>
    <g>
      <path class="cls-6" d="M200.7,35.43s-6.16,39.84,8.3,53.7l18.74.2-23.73-54.58-3.31.67Z"/>
      <line class="cls-2" x1="199.19" y1="50.82" x2="210.84" y2="50.35"/>
      <line class="cls-2" x1="200.12" y1="63.71" x2="215.96" y2="62.93"/>
      <line class="cls-2" x1="220.93" y1="79.19" x2="223.11" y2="79.08"/>
      <line class="cls-2" x1="203.7" y1="80.02" x2="215.04" y2="79.47"/>
      <line class="cls-1" x1="227.74" y1="89.34" x2="221.23" y2="74.36"/>
      <path class="cls-1" d="M217.2,65.07l-13.18-30.31-3.31.67s-6.16,39.84,8.3,53.7"/>
      <g>
        <path class="cls-12" d="M197.11.53s10.79,8.39,11.63,13.95c0,0-4.24,6.33-3.21,5.8,1.03-.53,4.18-5.08,4.18-5.08,0,0,1.82,7.15,1.21,7.98-.62.84-6.7,5.59-5.59,5.55,1.11-.04,5.58-3.19,5.58-3.19,0,0-4.45,10.69-6.47,12.85-2.02,2.16-7.59-10.11-7.59-10.11,0,0,7.01-1.06,5.73-1.36-1.28-.3-6.03-1.44-6.03-1.44,0,0-1.86-7.39-1.5-9.92,0,0,6.3-.09,5.22-.66-1.08-.58-5.17-2.31-5.17-2.31,0,0-.25-8.99,2.01-12.06Z"/>
        <path class="cls-1" d="M197.11.53s10.79,8.39,11.63,13.95c0,0-4.24,6.33-3.21,5.8,1.03-.53,4.18-5.08,4.18-5.08,0,0,1.82,7.15,1.21,7.98-.62.84-6.7,5.59-5.59,5.55,1.11-.04,5.58-3.19,5.58-3.19,0,0-4.45,10.69-6.47,12.85-2.02,2.16-7.59-10.11-7.59-10.11,0,0,7.01-1.06,5.73-1.36-1.28-.3-6.03-1.44-6.03-1.44,0,0-1.86-7.39-1.5-9.92,0,0,6.3-.09,5.22-.66-1.08-.58-5.17-2.31-5.17-2.31,0,0-.25-8.99,2.01-12.06Z"/>
        <path class="cls-12" d="M204.16,36.76s11.29,1.7,17.85,8.11c0,0-6.27.98-5.12,1.5s5.89.36,5.89.36l4.98,7.57s-5.67-.68-5.04-.23c.63.44,5.61,2.24,5.61,2.24,0,0,1.97,5.54-.07,9.78,0,0-7.03-2.11-8.71-3.76,0,0-1.92-8.16-2.13-6.79l-.82,5.47s-7.34-5.83-8.57-12.83c0,0,1.67-7.62,1.1-6.13s-2.22,5.44-2.22,5.44c0,0-3.42-4.01-2.76-10.74Z"/>
        <path class="cls-9" d="M203.4,35.93s-9.89,5.7-19.01,4.78c0,0,4.29-4.67,3.07-4.37s-4.83,3.39-4.83,3.39l-8.62-2.82s4.86-3,4.09-2.96-5.79,1.74-5.79,1.74c0,0-4.99-3.11-6.04-7.7,0,0,6.81-2.73,9.15-2.48,0,0,6.59,5.19,5.9,3.99-.69-1.2-2.77-4.79-2.77-4.79,0,0,9.38-.02,14.69,4.7,0,0,3.44,7,2.96,5.48-.48-1.52-1.65-5.64-1.65-5.64,0,0,5.17,1.01,8.85,6.68Z"/>
        <path class="cls-9" d="M203.14,37.13s6.22-9.57,14.77-12.89c0,0-1.7,6.11-.75,5.29.95-.83,2.77-5.21,2.77-5.21l8.96-1.4s-2.97,4.88-2.3,4.49c.67-.39,4.36-4.18,4.36-4.18,0,0,5.86.51,8.88,4.12,0,0-4.83,5.53-7.03,6.37,0,0-8.22-1.63-7.06-.88s4.64,3.02,4.64,3.02c0,0-8.35,4.27-15.23,2.48,0,0-6.24-4.68-5.13-3.54,1.12,1.14,4.03,4.27,4.03,4.27,0,0-5.07,1.45-10.91-1.94Z"/>
        <path class="cls-12" d="M203.41,37.08s-.89,10.22-6.27,16.47c0,0-1.23-5.57-1.64-4.51-.4,1.06,0,5.31,0,5.31l-6.51,4.9s.29-5.12-.07-4.53c-.36.59-1.7,5.16-1.7,5.16,0,0-4.86,2.07-8.78.49,0,0,1.49-6.42,2.88-8.02,0,0,7.21-2.18,5.97-2.29-1.24-.11-4.96-.43-4.96-.43,0,0,4.81-6.92,11.03-8.41,0,0,6.93,1.07,5.56.64-1.37-.43-5-1.68-5-1.68,0,0,3.41-3.29,9.47-3.08Z"/>
        <path class="cls-1" d="M197.14,53.55s-1.23-5.57-1.64-4.51c-.4,1.06,0,5.31,0,5.31l-6.51,4.9s.29-5.12-.07-4.53c-.36.59-1.7,5.16-1.7,5.16,0,0-4.86,2.07-8.78.49,0,0,1.49-6.42,2.88-8.02,0,0,7.21-2.18,5.97-2.29-1.24-.11-4.96-.43-4.96-.43,0,0,4.81-6.92,11.03-8.41,0,0,6.93,1.07,5.56.64-1.37-.43-5-1.68-5-1.68,0,0,3.41-3.29,9.47-3.08"/>
      </g>
    </g>
    <g>
      <polygon class="cls-8" points="104.48 64.3 136.5 126.93 133.12 128.15 103.06 66.8 104.48 64.3"/>
      <path class="cls-11" d="M143.32,57.05s-24.41-22.27-49.88-9.03c-23.8,12.37-24.53,38.17-24.53,38.17,0,0,10.26-6.31,18.92-5,0,0,6.66-5.72,13.7-4.84,0,0,6.98-6.21,14.74-5.14,0,0,5.09-5.56,12.46-5.93,0,0,8.11-6.18,14.6-8.24Z"/>
      <g>
        <path class="cls-14" d="M94.45,47.65c-.13-.45,2.06,18.99,5.85,28.62-6.57-.15-12.48,4.92-12.48,4.92-.08-.01-.16-.01-.24-.02-6.57-21.98,6.06-31.41,6.87-33.52Z"/>
        <path class="cls-14" d="M117.05,70.45c-8.15-10.68-22.45-22.77-22.45-22.77,15.78.46,28.08,11.24,33.52,17.66-5.37.48-9.45,3.63-11.08,5.11Z"/>
      </g>
      <path class="cls-1" d="M101.52,76.35s6.98-6.21,14.74-5.14c0,0,5.09-5.56,12.46-5.93,0,0,8.11-6.18,14.6-8.24,0,0-2.51-2.29-6.76-4.96"/>
      <path class="cls-1" d="M119.36,44.81c-7.79-1.72-16.79-1.54-25.93,3.21-23.8,12.37-24.53,38.17-24.53,38.17,0,0,10.26-6.31,18.92-5"/>
    </g>
    <g>
      <g>
        <path class="cls-14" d="M199,112.1c8.4.85,9.49,9.11,8.72,14.3s-2.75,8.12-2.87,12.5c-.13,4.37-1.73,12.57-10.42,10.13-8.68-2.44-1.22-12.91-1.69-20.05-.13-2.06-1.05-17.61,6.25-16.88Z"/>
        <path class="cls-1" d="M190.73,139.72c.8-3.56,2.23-7.5,2.02-10.75"/>
        <path class="cls-1" d="M199,112.1c8.4.85,9.49,9.11,8.72,14.3s-2.75,8.12-2.87,12.5c-.13,4.37-1.73,12.57-10.42,10.13-1.9-.53-3.02-1.45-3.63-2.63"/>
        <path class="cls-11" d="M191.17,130.08c.11-4.61,8.47-9.24,8.6-10.13.13-.88-.29-3.43.91-3.14,1.2.29.6,2.8,1.11,3.21.5.41,6.32,8.18,4.88,11.81-1.44,3.62-4.87,8.04-5.4,6.27-.53-1.77,3.96-5.5,3.22-7.41-.73-1.91-1.86-6.54-3.72-6.57-1.89-.03-7.24,3.73-6.88,5.92.35,2.19,3.69,4.81,2.1,6.38-1.58,1.57-4.93-1.74-4.82-6.35Z"/>
      </g>
      <g>
        <path class="cls-14" d="M176.6,120.22c-8.44-.16-10.51,7.91-10.37,13.15.14,5.24,1.75,8.39,1.35,12.75-.4,4.36.21,12.68,9.13,11.3,8.91-1.38,2.76-12.67,4.08-19.7.38-2.03,3.16-17.36-4.18-17.5Z"/>
        <path class="cls-1" d="M180.78,137.72c.38-2.03,3.16-17.36-4.18-17.5-8.44-.16-10.51,7.91-10.37,13.15.14,5.24,1.75,8.39,1.35,12.75-.4,4.36.21,12.68,9.13,11.3"/>
        <path class="cls-11" d="M182.22,139.02c.44-4.59-7.3-10.19-7.32-11.08-.02-.89.69-3.37-.53-3.22s-.93,2.7-1.48,3.05c-.55.35-7.25,7.37-6.26,11.14.99,3.77,3.87,8.57,4.61,6.88.74-1.69-3.27-5.93-2.31-7.74.96-1.81,2.63-6.27,4.49-6.08,1.88.2,6.74,4.57,6.12,6.71-.61,2.14-4.24,4.33-2.85,6.08s5.1-1.14,5.54-5.72Z"/>
      </g>
    </g>
    <g>
      <path class="cls-16" d="M329.77,247.13s-.61-3.91,1.31-4.4,2.44.76,3.48.8c1.04.04,3.32-.16,5.38.49,2.06.65,9.48,4.82,12.95,3.54,3.46-1.29,11.56-9.6,13.38-10.1,1.82-.5,2.48-.28,2.48-.28,0,0-.49-4.38.56-4.62,1.05-.24,9.28-.04,9.63.64.35.68-.29,4.92-.2,5.21.08.29,1.99,2.35,1.99,2.35,0,0,1.36-.3,3.35,4.51,1.99,4.82,1.42,14.75-3.49,21.38-4.9,6.63-23.49,9.23-26,7.99-2.51-1.24-2.82-3.05-2.82-3.05,0,0-1.79-.26-1.95-1.12s-.01-2.09-.01-2.09c0,0-12.19-3.41-12.43-7.12-.24-3.71,1.13-4.7.85-4.8-.28-.11-7.78-2.2-8.45-9.34Z"/>
      <path class="cls-9" d="M378.93,233.19c-.35-.68-8.58-.88-9.63-.64-.66.15-.71,1.93-.66,3.23l10.18,1.33c.14-1.39.35-3.46.11-3.92Z"/>
      <path class="cls-14" d="M383.73,244.48c-1.07,5.31-3.03,13.66-5.64,18.65-4.05,7.75-12.22,7.7-19.51,9.15-4.71.94-6.17.38-6.62-.14.29.63.98,1.68,2.63,2.5,2.51,1.24,21.1-1.36,26-7.99,4.9-6.64,5.48-16.57,3.49-21.38-.12-.28-.23-.54-.34-.78Z"/>
      <path class="cls-14" d="M352.33,264.14s-1.35-3.13,2.12-6.21c3.47-3.08,11.5-3.04,12.92-4.99,1.42-1.95,7.05-8.97,7.01-8.03-.04.94-4.72,11.2-9.38,13.97-4.66,2.77-12.66,5.27-12.66,5.27Z"/>
      <path class="cls-14" d="M342.01,253.96s-.44-2.56,3.36-3.75c3.8-1.19,6.01.37,10.91-1.45,4.89-1.82,10.44-6.56,12.71-6.47,0,0-6.81,9.65-13.03,11.15-6.22,1.5-13.95.53-13.95.53Z"/>
      <path class="cls-1" d="M337.37,261.27c-.24-3.71,1.13-4.7.85-4.8-.28-.11-7.78-2.2-8.45-9.34,0,0-.61-3.91,1.31-4.4s2.44.76,3.48.8c1.04.04,3.32-.16,5.38.49,2.06.65,9.48,4.82,12.95,3.54,1.1-.41,2.66-1.52,4.34-2.86"/>
      <path class="cls-1" d="M369.42,272.87c-1.34.4-2.71.74-4.04,1.02-5.07,1.08-9.64,1.32-10.8.75-2.51-1.24-2.82-3.05-2.82-3.05,0,0-1.79-.26-1.95-1.12s-.01-2.09-.01-2.09c0,0-2.45-.69-5.18-1.78"/>
      <path class="cls-1" d="M378.93,233.19c.35.68-.29,4.92-.2,5.21.08.29,1.99,2.35,1.99,2.35,0,0,1.36-.3,3.35,4.51"/>
      <path class="cls-1" d="M362.26,240.43c1.82-1.55,3.33-2.79,4-2.97,1.82-.5,2.48-.28,2.48-.28,0,0-.49-4.38.56-4.62"/>
      <path class="cls-5" d="M332.38,243.62c1.77.56,3.05,5.16-.03,5.04-3.09-.12-1.73-5.6.03-5.04Z"/>
      <path class="cls-5" d="M341.18,257.55c1.77.56,3.05,5.16-.03,5.04s-1.73-5.6.03-5.04Z"/>
      <path class="cls-5" d="M353.75,266.07c1.77.56,3.05,5.16-.03,5.04-3.09-.12-1.73-5.6.03-5.04Z"/>
      <path class="cls-1" d="M340.07,255.49s-.36-.95,3-1.36,8.28.59,12.89-.7c4.61-1.29,11.71-11.87,14.8-11.88"/>
      <path class="cls-1" d="M351.58,266.12s2.15-3.67,4.6-4.64,5.1-.34,8.81-2.6c3.71-2.27,9.29-14.91,12.11-15.2"/>
    </g>
    <g>
      <g>
        <path class="cls-12" d="M92.44,242.55c1.1-2.07,2.51-2.15,3.89-3.31,1.38-1.16,2.39-3.35,4.97-3.35,2.58,0,5.89,3.9,8.71,5.02,2.82,1.12,11.4,1.83,17.07,12.67,5.68,10.84,2.56,22.24,1.41,25.26s-4.29,3.78-10.35,2.76c-6.05-1.03-13.85-3.21-18.28-9.98-4.44-6.77-4.51-17.73-5.25-19.04s-3.27-7.96-2.16-10.03Z"/>
        <path class="cls-1" d="M92.44,242.55c1.1-2.07,2.51-2.15,3.89-3.31,1.38-1.16,2.39-3.35,4.97-3.35,2.58,0,5.89,3.9,8.71,5.02,1.41.56,4.26,1.02,7.46,2.69"/>
        <path class="cls-1" d="M127.09,253.58c5.68,10.84,2.56,22.24,1.41,25.26s-4.29,3.78-10.35,2.76c-6.05-1.03-13.85-3.21-18.28-9.98-4.44-6.77-4.51-17.73-5.25-19.04"/>
        <path class="cls-14" d="M97.43,251.13s-3.52-3.93-2.12-5.84c1.4-1.91,2.51-.86,3.38-2.22s1.04-2.94,3.4-2.97c2.37-.03,4.22,2.33,7.09,3.78,2.87,1.45,10.29,3.89,14.3,10.05,4,6.16,8.32,18.7,1.5,22.81-6.82,4.11-13.6,2.31-19.21-3.26-5.61-5.57-7.77-21.29-8.34-22.36Z"/>
        <path class="cls-8" d="M102.79,259.45c-1.88-7.3-2.78-12.72,2.16-12.74,4.94-.02,25.38,18.16,17.24,26.87-6.22,6.66-17.53-6.84-19.4-14.14Z"/>
      </g>
      <path class="cls-5" d="M106.18,259.44c1.34-.48,2.54,1.08,1.26,2.1-1.69,1.35-2.6-1.62-1.26-2.1Z"/>
      <path class="cls-5" d="M113.87,263.81c1.34-.48,2.54,1.08,1.26,2.1-1.69,1.35-2.6-1.62-1.26-2.1Z"/>
      <path class="cls-5" d="M118.49,266.71c1.34-.48,2.54,1.08,1.26,2.1-1.69,1.35-2.6-1.62-1.26-2.1Z"/>
      <path class="cls-5" d="M105.48,255.55c1.34-.48,2.54,1.08,1.26,2.1-1.69,1.35-2.6-1.62-1.26-2.1Z"/>
      <path class="cls-5" d="M113.98,259.3c1.34-.48,2.54,1.08,1.26,2.1-1.69,1.35-2.6-1.62-1.26-2.1Z"/>
      <path class="cls-5" d="M108.97,257.84c.8-.52,2.1.61,1.06,1.5s-1.86-.98-1.06-1.5Z"/>
      <path class="cls-5" d="M103.38,251.72c.8-.52,2.1.61,1.06,1.5-1.04.89-1.86-.98-1.06-1.5Z"/>
      <path class="cls-5" d="M118.06,261.38c.8-.52,2.1.61,1.06,1.5-1.04.89-1.86-.98-1.06-1.5Z"/>
      <path class="cls-5" d="M111.79,268.01c.8-.52,2.1.61,1.06,1.5-1.04.89-1.86-.98-1.06-1.5Z"/>
      <path class="cls-5" d="M111.35,254.39c.8-.52,2.1.61,1.06,1.5-1.04.89-1.86-.98-1.06-1.5Z"/>
      <path class="cls-5" d="M107.16,250.59c.8-.52,2.1.61,1.06,1.5-1.04.89-1.86-.98-1.06-1.5Z"/>
      <path class="cls-5" d="M115.2,256.86c.8-.52,2.1.61,1.06,1.5-1.04.89-1.86-.98-1.06-1.5Z"/>
      <path class="cls-5" d="M109.73,262.92c.8-.52,2.1.61,1.06,1.5-1.04.89-1.86-.98-1.06-1.5Z"/>
    </g>
    <g>
      <g>
        <path class="cls-11" d="M65.43,146.62c1.23,12.07-7.27,16.18-7.05,20.5.22,4.33,2.93,18.05.83,20.9-2.09,2.84-4.47,1.74-5.26-.64-.79-2.38,1.16-16.83-.23-20.57-1.39-3.74-7.78-11-7.45-19.9.6-15.74,17.92-12.36,19.15-.29Z"/>
        <path class="cls-16" d="M61.8,160.51c2.11-3.16,4.29-7.35,3.62-13.89-1.23-12.07-18.55-15.45-19.15.29-.22,5.66,2.29,10.65,4.5,14.5,3.66-.45,7.85-.73,11.03-.9Z"/>
        <path class="cls-8" d="M65.35,151.69c.21-1.52.27-3.19.08-5.07-1.23-12.07-18.55-15.45-19.15.29-.08,2.03.2,3.96.69,5.8,6.04-.83,13.49-1,18.38-1.02Z"/>
        <polygon class="cls-14" points="51.52 143.29 55.38 148.83 57.96 142.58 51.52 143.29"/>
        <path class="cls-11" d="M48.1,140.1c-.37.59-.69,1.27-.96,2.01l16.2-1.16c-.41-.59-.87-1.13-1.37-1.61-4.27-.2-9.8.29-13.87.76Z"/>
        <polygon class="cls-12" points="48.63 150.49 54 149.69 50.51 144.72 48.63 150.49"/>
        <polygon class="cls-12" points="62.86 149.42 59.1 143.51 56.15 149.42 62.86 149.42"/>
        <path class="cls-1" d="M62.16,139.52c1.72,1.76,2.97,4.17,3.27,7.1,1.23,12.07-7.27,16.18-7.05,20.5"/>
        <path class="cls-1" d="M46.28,146.91c.22-5.9,2.8-9.12,6-10.19"/>
        <path class="cls-1" d="M59.21,188.02c-2.09,2.84-4.47,1.74-5.26-.64-.79-2.38,1.16-16.83-.23-20.57"/>
      </g>
      <g>
        <path class="cls-11" d="M24.8,137.82c7.93,9.19,3.32,17.42,5.98,20.84,2.66,3.42,12.75,13.11,12.66,16.64-.09,3.53-2.66,3.99-4.67,2.49-2.01-1.5-8.7-14.45-11.99-16.72-3.29-2.27-12.68-4.55-17.51-12.03-8.53-13.24,7.6-20.4,15.52-11.22Z"/>
        <path class="cls-16" d="M29.79,151.27c-.09-3.8-.7-8.48-4.99-13.45-7.93-9.19-24.06-2.02-15.52,11.22,3.07,4.76,7.98,7.41,12,9.3,2.74-2.46,6.01-5.1,8.52-7.06Z"/>
        <path class="cls-8" d="M27.63,142.02c-.7-1.37-1.6-2.77-2.84-4.2-7.93-9.19-24.06-2.02-15.52,11.22,1.1,1.7,2.44,3.13,3.89,4.35,4.48-4.14,10.48-8.56,14.48-11.37Z"/>
        <polygon class="cls-12" points="13.04 151.43 17.61 147.4 11.7 144.72 13.04 151.43"/>
        <polygon class="cls-12" points="20.03 145.93 24.59 142.3 18.42 138.94 20.03 145.93"/>
        <path class="cls-11" d="M17.4,133.78c-3.44,2.07-7.47,5.26-10.54,7.83-.03.73.04,1.51.21,2.33l12.49-9.67c-.71-.24-1.44-.4-2.16-.49Z"/>
        <polygon class="cls-14" points="12.42 142.45 17.12 139.3 17.51 145.42 12.42 142.45"/>
        <path class="cls-1" d="M9.27,149.04c-8.53-13.24,7.6-20.4,15.52-11.22,7.93,9.19,3.32,17.42,5.98,20.84"/>
        <path class="cls-1" d="M43.44,175.3c-.09,3.53-2.66,3.99-4.67,2.49-2.01-1.5-8.7-14.45-11.99-16.72"/>
      </g>
    </g>
    <g>
      <path class="cls-14" d="M246.22,360.22c3.51-16.67,23.12-11.54,24.4-17.36,1.28-5.81,6.13-15.05,14.64-15.94,8.5-.89,27.73,10.52,24.83,23.46-2.9,12.93-12.18,7.72-13.68,14.53-1.5,6.81.52,24.64-16.08,27.11-17.08,2.55-37.61-15.14-34.1-31.8Z"/>
      <path class="cls-1" d="M280.33,392.03c-13.19,1.97-28.43-8.13-33.08-20.5-1.37-3.65-1.82-7.5-1.02-11.3"/>
      <path class="cls-1" d="M310.09,350.39c-2.9,12.93-12.18,7.72-13.68,14.53"/>
      <path class="cls-1" d="M255.15,348.94c6.72-3.08,14.68-2.44,15.47-6.07,1.28-5.81,6.13-15.05,14.64-15.94"/>
      <path class="cls-6" d="M290.83,352.08s-7.54-4.15-7.04-5.39c.5-1.24,31.58-37.39,33.13-36.76,1.55.63,4.65,3.7,4.62,4.23-.03.53-30.71,37.92-30.71,37.92Z"/>
      <line class="cls-2" x1="270.15" y1="363.43" x2="317.45" y2="310.77"/>
      <line class="cls-2" x1="271.79" y1="364.5" x2="318.59" y2="311.27"/>
      <line class="cls-2" x1="272.95" y1="366.03" x2="319.72" y2="312.8"/>
      <line class="cls-2" x1="274.3" y1="366.82" x2="321.44" y2="313.44"/>
      <path class="cls-5" d="M286.06,346.28c7.26,2.23,6.79,11.44-1.3,10.5s-5.87-12.71,1.3-10.5Z"/>
      <path class="cls-6" d="M265.97,363.02s1.59-2.42,2.26-2.04c.67.37,10.5,8.86,10.2,9.35-.3.49-1.87,1.59-1.87,1.59,0,0-10.83-8.79-10.58-8.89Z"/>
      <path class="cls-11" d="M330.74,307.11s1.22,1.47,1.46,1.43c.24-.04,1.03-1,1.41-.31.39.69-1.54,3.14-2.09,2.74s-.05-1.62-.05-1.62l-1.6-.87.87-1.38Z"/>
      <path class="cls-11" d="M327.37,311.37s1.22,1.47,1.46,1.43c.24-.04,1.03-1,1.41-.31.39.69-1.54,3.14-2.09,2.74-.55-.4-.05-1.62-.05-1.62l-1.6-.87.87-1.38Z"/>
      <path class="cls-11" d="M320.38,301.2s-1.21-1.47-1.45-1.44-1.03,1-1.41.31c-.38-.69,1.55-3.14,2.1-2.73s.05,1.62.05,1.62l1.59.87-.87,1.37Z"/>
      <path class="cls-11" d="M317.32,306.11s-1.21-1.47-1.45-1.44c-.24.04-1.03,1-1.41.31s1.55-3.14,2.1-2.73.05,1.62.05,1.62l1.59.87-.87,1.37Z"/>
      <path class="cls-5" d="M323.68,297.51c-1.55-.63-6.71,8.49-7.27,9.89-.57,1.4-.38,3.73-.38,3.73l4.56,3.87s2.79-.25,4.19-.58c1.4-.34,6.73-7.22,7.58-8.86.85-1.65-7.12-7.41-8.67-8.05ZM318.67,308.98s5.44-8.44,6.37-8.14c.93.3,1.4.33,1.12,1.02-.28.69-5.58,7.98-6.3,8.17-.72.19-1.19-1.05-1.19-1.05ZM322.56,312.1c-.72.19-1.19-1.05-1.19-1.05,0,0,5.44-8.44,6.37-8.14.93.3,1.4.33,1.12,1.02-.28.69-5.58,7.98-6.3,8.17Z"/>
    </g>
    <g>
      <g>
        <path class="cls-5" d="M139.68,189.26s28.56-11.04,30.55-8.85c1.99,2.19,11.95,21.86,11.92,29.28-.04,7.42-3.2,16.45-1.91,18.53,1.29,2.07,8.41,16.2,7.55,16.62-.86.43-23.44,9.47-25,8.14-1.56-1.33-2.99-20-4.26-20.92-1.27-.93-10.71-9.73-13.08-14.77-2.36-5.04-5.77-28.03-5.77-28.03Z"/>
        <path class="cls-14" d="M181.98,231.42c-5.96,1.76-15.85,4.67-22.08,6.47.43,2.81.88,6.15,1.34,9l24.9-6.92c-1.23-2.74-2.88-6.08-4.15-8.54Z"/>
        <path class="cls-14" d="M170.23,180.41c-1.99-2.19-30.55,8.85-30.55,8.85,0,0,.29,1.95.75,4.81,6.2-2.08,23.24-7.79,31.71-10.64-.85-1.51-1.53-2.6-1.92-3.02Z"/>
        <path class="cls-10" d="M177.47,193.31c-12.89,7.08-25.33,10-34.42,11.17,1.09,5.88,2.39,11.92,3.47,14.22,1.88,4,8.21,10.37,11.38,13.29,8.66-1.82,16.85-4.84,23.54-7.8.64-3.75,1.75-8.69,1.78-13.09.02-3.95-2.8-11.38-5.74-17.79Z"/>
        <path class="cls-14" d="M145.89,217.05l36.14-12.09c-.34-1.12-.74-2.3-1.18-3.51l-35.8,12.57c.28,1.15.57,2.18.84,3.03Z"/>
      </g>
      <polygon class="cls-2" points="146.19 192.78 145.26 215.4 163.44 236.3 156.77 210.15 146.19 192.78"/>
      <polygon class="cls-2" points="157.93 188.31 157.37 210.29 171.93 233.85 169.39 206.37 157.93 188.31"/>
      <polygon class="cls-2" points="168.72 184.65 169.36 205.98 178.07 231.73 180.57 201.74 168.72 184.65"/>
      <polygon class="cls-13" points="139.63 193.43 172.34 182.32 173.25 184.45 140.05 195.6 139.63 193.43"/>
      <path class="cls-13" d="M160.19,239.8l22.26-7.48c-.38-.75-.74-1.45-1.06-2.05l-21.53,7.31c.11.71.22,1.45.33,2.22Z"/>
    </g>
    <g>
      <g>
        <g>
          <path class="cls-11" d="M270.82,231.55c4.45-4.4,7.47-6.07,7.8-5.27.33.81-.81,2.74-.81,2.74,0,0,4.32-2.75,6.41-1.75,2.09,1-.43,3.03-.43,3.03,0,0,4.98-.14,5.6,1.69.63,1.82-2.31,2.07-2.31,2.07,0,0,6.6,4.11,6.13,5.95-.47,1.84-8.3-2.01-8.3-2.01,0,0,2.6,2.06,1.13,2.88-1.47.83-9.03,0-9.03,0,0,0,3.92.37,2.91,2.07-1.01,1.7-6.08,3.96-6.08,3.96,0,0,5.34-3.05,4.63-.64-.71,2.41-14.85,14.45-16.39,13.99-1.54-.46,4.27-24.33,8.71-28.72Z"/>
          <path class="cls-13" d="M262.57,259.08s5.99-22.16,12.14-25.15c6.16-2.98,13.61,2.68,13.61,2.68,0,0-9.7-5.12-14.08-.84-3.06,2.99-11.67,23.31-11.67,23.31Z"/>
        </g>
        <g>
          <path class="cls-11" d="M247.98,229.8c-4.17-4.66-8.82-5-9.07-4.16-.25.84,1.1,2.64,1.1,2.64,0,0-4.59-2.28-6.56-1.06s.75,2.97.75,2.97c0,0-4.96.4-5.39,2.28s2.52,1.81,2.52,1.81c0,0-6.13,4.79-5.47,6.57.66,1.78,8.04-2.88,8.04-2.88,0,0-2.37,2.32-.82,2.99,1.55.66,8.98-.96,8.98-.96,0,0-3.86.79-2.67,2.37s6.46,3.29,6.46,3.29c0,0-5.63-2.46-4.67-.14.96,2.32,13.98,15.65,15.46,15.03,1.48-.62-.84-22-8.65-30.74Z"/>
          <path class="cls-13" d="M256.05,259.69s-5.99-24.55-12.43-26.86c-6.44-2.31-13.25,4.12-13.25,4.12,0,0,9.1-6.12,13.92-2.34,3.36,2.64,11.77,25.08,11.77,25.08Z"/>
        </g>
        <path class="cls-14" d="M250.8,251.43c-1.62-5-1.98-15.44-.38-15.14,1.59.3,2.59,2.46,2.59,2.46,0,0-3.21-7.93-1.8-7.58s1.84,2.49,1.84,2.49c0,0-1.23-8.88.29-10.82,1.52-1.94,3.41.72,3.08.25-.32-.47.61-9.03,3.1-8.23,2.49.79,3.29,12.81,3.29,12.81,0,0,1.76-6.34,4.5-3.36s-.46,12.19-.46,12.19c0,0,2.93-5.55,3.85-.35.92,5.2-9.97,27.56-11.5,28.83s-6.79-8.52-8.41-13.52Z"/>
        <path class="cls-8" d="M259.33,264.11s-2.78-34.5.35-45.42c0,0-.4,26.2-.35,45.42Z"/>
      </g>
      <g>
        <path class="cls-16" d="M281.11,252.26c-2.45,1.16-7.63-1.83-14.61,2.34-6.99,4.16-8.25,9.47-8.25,9.47-3.96-12.76-20.17-8.42-20.92-8.36-.75.06-4.32-3.24-5.65-3.01-1.32.23,1.26,18.94,10.09,21.19s16.04-1.66,16.04-1.66c0,0,7.83,5.78,17.63.66,9.8-5.12,10.16-22.21,10.16-22.21,0,0-2.04.43-4.48,1.59ZM255.07,269.01c-7.46,5.03-14.93-2.61-14.93-2.61,0,0,3.05-7,9.34-4.75,6.29,2.24,5.58,7.36,5.58,7.36ZM262.54,269.41s-1.62-4.91,4.17-8.24c5.79-3.34,10.05,3,10.05,3,0,0-5.98,8.86-14.22,5.25Z"/>
        <path class="cls-1" d="M241.76,273.88c8.83,2.26,16.04-1.66,16.04-1.66,0,0,7.83,5.78,17.63.66,2.2-1.15,3.92-2.9,5.28-4.93M284.19,259.88c1.32-4.92,1.41-9.21,1.41-9.21,0,0-2.04.43-4.48,1.59-2.45,1.16-7.63-1.83-14.61,2.34-6.99,4.16-8.25,9.47-8.25,9.47-3.96-12.76-20.17-8.42-20.92-8.36-.75.06-4.32-3.24-5.65-3.01M249.49,261.65c6.29,2.24,5.58,7.36,5.58,7.36-1.77,1.19-3.54,1.67-5.21,1.71-5.37.12-9.72-4.32-9.72-4.32M276.76,264.16s-5.98,8.86-14.22,5.25c0,0-1.62-4.91,4.17-8.24"/>
        <path class="cls-13" d="M276.86,252.38c-2.68-.21-6.2-.27-10.36,2.21-6.99,4.16-8.25,9.47-8.25,9.47-3.96-12.76-20.17-8.42-20.92-8.36,0,0,17.49,1.03,20.48,16.52,0,0,5.12-17.82,19.05-19.83Z"/>
      </g>
    </g>
    <g>
      <path class="cls-8" d="M262.26,128.09s-19.93-5.22-9.96-31.31,78.76-27.52,86.35,0c7.59,27.52-24.2,51.24-64.53,36.53,0,0-11.45,8.97-23.25,7.59,0,0,9.01-10.44,11.39-12.81Z"/>
      <path class="cls-1" d="M250.29,103.35c.45-2.03,1.1-4.21,2-6.57"/>
      <path class="cls-1" d="M338.65,96.78c7.59,27.52-24.2,51.24-64.53,36.53,0,0-11.45,8.97-23.25,7.59,0,0,9.01-10.44,11.39-12.81,0,0-9.38-2.46-12.05-12.42"/>
      <g>
        <polygon class="cls-9" points="318.36 92.09 318.43 122.53 275.5 122.33 274.9 92.31 318.36 92.09"/>
        <polygon class="cls-16" points="279.87 107.22 296.77 95.89 312.87 107.22 296.57 118.55 279.87 107.22"/>
        <path class="cls-11" d="M297.19,99.45c8.45.92,9.24,14.55-.53,14.66-12.15.13-7.92-15.58.53-14.66Z"/>
        <path class="cls-8" d="M289.43,105.46c7.06-.03,11.76,2.57,13.94,4.14.25-.76.38-1.57.38-2.39-3.59-3.43-9.81-4.03-13.32-4.08-.44.73-.78,1.52-1.01,2.34Z"/>
      </g>
    </g>
    <g>
      <g>
        <path class="cls-16" d="M300.76,179.29c2.34-.38,49.69,7.98,50.14,11.33.46,3.34-3.4,23.47-5.34,25.87-1.69,2.09-50.85-8.86-51.69-10.3-.84-1.44,4.54-26.51,6.88-26.89Z"/>
        <path class="cls-1" d="M300.76,179.29c2.34-.38,49.69,7.98,50.14,11.33.46,3.34-3.4,23.47-5.34,25.87-1.69,2.09-50.85-8.86-51.69-10.3-.84-1.44,4.54-26.51,6.88-26.89Z"/>
        <path class="cls-12" d="M302.32,203.33c.89-.28,9.49-13.55,9.49-13.55,0,0,4.67,18.63,5.51,18.15.84-.48,11.72-14.03,11.72-14.03,0,0,6.36,18.97,7.63,18.21,1.27-.76,12.74-18.18,12.74-18.18,0,0-26.4-4.12-33.62-5.49-7.23-1.36-16.85-5.07-16.85-5.07,0,0,2.5,20.23,3.39,19.95Z"/>
        <path class="cls-8" d="M295.11,180.82c1.35-9.68,58.14,3.59,56.94,10.15-1.94,10.59-57.74-4.36-56.94-10.15Z"/>
        <path class="cls-11" d="M299.5,180.74c1.66-4.22,50.05,6.29,48.55,9.87-1.79,4.27-49.7-6.94-48.55-9.87Z"/>
        <path class="cls-8" d="M291.18,202.56s56.67,11.99,57.08,13.18.67,2.17-.31,2.44-56.89-10.92-57.74-12.2c-.85-1.28-.53-3.35.97-3.42Z"/>
        <path class="cls-1" d="M334.17,212c8.01,1.86,13.95,3.36,14.09,3.74.41,1.19.67,2.17-.31,2.44s-56.89-10.92-57.74-12.2c-.85-1.28-.53-3.35.97-3.42,0,0,15.85,3.35,30.85,6.69"/>
      </g>
      <g>
        <path class="cls-6" d="M359.69,171.75s.07-1.46-.67-2.29c-.62-.7-19.37,6.88-25.21,9.27-.41-.5-1.01-.87-1.74-.89-2.78-.07-3.56,4.15.04,4.31,1.86.08,2.47-1.06,2.28-2.18l25.3-8.22Z"/>
        <path class="cls-2" d="M353.42,173.79l6.27-2.04s.07-1.46-.67-2.29c-.62-.7-19.37,6.88-25.21,9.27-.41-.5-1.01-.87-1.74-.89-2.78-.07-3.56,4.15.04,4.31,1.86.08,2.47-1.06,2.28-2.18l12.02-3.91"/>
        <path class="cls-6" d="M322.47,172.94c-.68-.26-1.37-.16-1.94.14-4.45-4.46-18.8-18.72-19.64-18.31-1,.48-1.5,1.85-1.5,1.85l20.13,17.39c-.61.96-.49,2.25,1.25,2.89,3.37,1.25,4.3-2.95,1.7-3.96Z"/>
        <path class="cls-2" d="M304.22,157.3c-1.82-1.63-3.1-2.65-3.33-2.54-1,.48-1.5,1.85-1.5,1.85l20.13,17.39c-.61.96-.49,2.25,1.25,2.89"/>
        <path class="cls-2" d="M322.47,172.94c-.68-.26-1.37-.16-1.94.14-2.1-2.1-6.38-6.36-10.42-10.25"/>
      </g>
    </g>
    <g>
      <path class="cls-9" d="M374.85,282.41s10.77,13.27,11.31,12.54c.54-.73,1.83-8.22,1.83-8.22,0,0,8.73-1.17,7.54-2.61-1.19-1.44-10.85-11.63-10.85-11.63l-9.83,9.93Z"/>
      <path class="cls-16" d="M388.09,269.37s13.87,10.2,14.13,8.7c.26-1.5.35-6.21.35-6.21,0,0,9.69-5.53,7.73-6.69s-12.95-8.4-12.95-8.4c0,0-5.97,10.8-9.26,12.59Z"/>
      <path class="cls-11" d="M398.68,253.82s14.29,6.57,14.33,5.76c.04-.82-1.01-6.65-1.01-6.65,0,0,6.66-5.23,5.43-5.85-1.23-.62-13.57-7.17-13.57-7.17,0,0-2.12,10.53-5.17,13.91Z"/>
      <path class="cls-3" d="M371.09,285.09s33-23.72,33.08-49.48"/>
    </g>
  </g>
  <g>
    <g>
      <path class="cls-16" d="M368.56,203.81s.4-3.52,1.21-3.32c.8.2,1.41,2.61,1.41,2.61,0,0,4.12.1,3.72,1.01-.4.9-1.91,1.91-1.91,1.91,0,0,.8,4.12,0,4.12s-2.51-2.11-2.51-2.11c0,0-1.61,2.41-2.21,2.21-.6-.2-.9-4.02-.9-4.02,0,0-2.81-.7-2.41-1.41.4-.7,3.62-1.01,3.62-1.01Z"/>
      <path class="cls-16" d="M144.91,308.45s.4-3.52,1.21-3.32c.8.2,1.41,2.61,1.41,2.61,0,0,4.12.1,3.72,1.01-.4.9-1.91,1.91-1.91,1.91,0,0,.8,4.12,0,4.12s-2.51-2.11-2.51-2.11c0,0-1.61,2.41-2.21,2.21-.6-.2-.9-4.02-.9-4.02,0,0-2.81-.7-2.41-1.41.4-.7,3.62-1.01,3.62-1.01Z"/>
      <path class="cls-16" d="M282.93,61.4s.64-5.59,1.92-5.27c1.28.32,2.24,4.15,2.24,4.15,0,0,6.55.16,5.91,1.6-.64,1.44-3.03,3.03-3.03,3.03,0,0,1.28,6.55,0,6.55s-3.99-3.35-3.99-3.35c0,0-2.55,3.83-3.51,3.51-.96-.32-1.44-6.39-1.44-6.39,0,0-4.47-1.12-3.83-2.24.64-1.12,5.75-1.6,5.75-1.6Z"/>
      <path class="cls-14" d="M113.92,162.7s1.1-3.77,1.89-3.38c.79.39,1.41,2.83,1.41,2.83,0,0,3.38.08,3.06.71-.31.63-1.57,1.57-1.57,1.57,0,0,.79,3.69-.08,3.85-.86.16-2.2-1.57-2.2-1.57,0,0-2.75,2.44-3.22,1.73-.47-.71-.08-3.54-.08-3.54,0,0-2.75-.94-2.59-1.49.16-.55,3.38-.71,3.38-.71Z"/>
      <path class="cls-14" d="M18.4,105.04s1.55-5.3,2.65-4.75c1.1.55,1.99,3.98,1.99,3.98,0,0,4.75.11,4.31.99-.44.88-2.21,2.21-2.21,2.21,0,0,1.1,5.19-.11,5.41-1.22.22-3.09-2.21-3.09-2.21,0,0-3.87,3.42-4.53,2.43-.66-.99-.11-4.97-.11-4.97,0,0-3.87-1.33-3.65-2.1.22-.77,4.75-.99,4.75-.99Z"/>
    </g>
    <g>
      <path class="cls-8" d="M235.64,345.71l-14.59,3.34v17.13s-4.23-1.34-5.34,1.57c-1.11,2.91,4.77,3.55,6.05,2.21.88-.92,1-8.93,1-13.87l11.14-2.91-.2,10.67s-5.53-1.28-5.59,1.92,5.65,3.38,6.69,1.98c1.05-1.4.84-22.05.84-22.05ZM222.75,354.36c-.01-1.31-.03-2.15-.03-2.15l11.24-2.79-.03,1.77-11.18,3.16Z"/>
      <path class="cls-8" d="M203.92,191.75s-4.17-1.31-5.26,1.54c-1.09,2.86,4.69,3.49,5.94,2.17,1.26-1.31.57-15.54.57-15.54l11.09-2.8.06,12.34s-5.43-1.26-5.49,1.89c-.06,3.14,5.54,3.31,6.57,1.94,1.03-1.37.34-20.51.34-20.51l-14.17,2.86.34,16.11Z"/>
      <path class="cls-8" d="M81.17,165.46c0,.19.19,18.51.19,18.51,0,0-5.92-1.62-6.73,2.81-.81,4.43,8.42,5.24,8.48.19l-.06-22.13-1.87.62Z"/>
      <path class="cls-8" d="M314.67,227.51l.38,18.73s-5.97-1.89-7.23,1.82c-1.26,3.71,3.77,6.29,6.91,4.21,3.14-2.07,1.7-18.17,1.7-18.17,0,0,2.89,0,3.21,2.07.31,2.07.94,8.17.94,8.17,0,0,2.01-8.23,1.13-10.62-.88-2.39-7.04-6.22-7.04-6.22Z"/>
    </g>
  </g>
  <g>
    <g>
      <g>
        <path class="cls-15" d="M130.44,359.62c2.5-.49,4.96-.35,6.12,1.5,1.78,2.83-2.19,3.71-5.89,5.15.47,1.92,1.33,3.81,2.69,5.53.46.58.99,1.13,1.58,1.65,3.69-3.68,5.87-10.68,6.19-6.81.21,2.51-1.4,6.27-2.89,9.16,2.55,1.49,5.57,2.71,8.61,3.68-.1-3.48-.98-7.88,1.71-7.57,2.75.32,1.9,4.63,1.24,8.45,1.07.29,2.13.56,3.15.8-.11-4.04.44-10.04,2.22-9.59,2.32.58.14,3.09.07,6.89-.02,1.19.36,2.36.9,3.39,3.94.79,6.76,1.11,6.76,1.11,0,0,.83-1.97,1.76-5.01-3.6-1.87-6.57-2.38-4.56-4.11.93-.81,3.23.13,5.42,1.1.24-.9.46-1.85.67-2.84-3.72-1.45-8.35-2.21-7.08-3.55,1.19-1.24,4.6.15,7.56,1,.64-3.87.89-8.06.15-11.81-5.59,1.61-16.37,4.22-15.43.19.76-3.24,8.93-2.67,14.62-3.08-.35-.92-.78-1.79-1.3-2.6-1.79-2.77-4.17-4.74-6.71-6.06-3.08,3.97-6.8,10.84-7.55,5.52-.33-2.34,1.24-4.83,3.42-7.08-5.7-1.44-10.96-.02-10.94,2.73.05,4.67,4.75,8.67.46,8.9-2.51.13-2.92-6.07-7.03-5.9-2.32.09-5.15,4.18-5.95,9.26ZM161.61,362.64c1.02,2.42-8.13,3.17-7.54,1.4.59-1.77,6.52-3.81,7.54-1.4ZM145.6,365.94c1.66,1.09-.97,8.17-2.47,6.2-1.51-1.97.81-7.28,2.47-6.2ZM144.32,359.28c2,1.52-1.67,3.71-2.73,2.51-1.06-1.2.73-4.03,2.73-2.51Z"/>
        <path class="cls-12" d="M160.13,373.84c.93-.81,3.23.13,5.42,1.1.24-.9.46-1.85.67-2.84-3.72-1.45-8.35-2.21-7.08-3.55,1.19-1.24,4.6.15,7.56,1,.64-3.87.89-8.06.15-11.81-5.59,1.61-16.37,4.22-15.43.19.76-3.24,8.93-2.67,14.62-3.08-.35-.92-.78-1.79-1.3-2.6-1.79-2.77-4.17-4.74-6.71-6.06-3.08,3.97-6.8,10.84-7.55,5.52-.33-2.34,1.24-4.83,3.42-7.08-5.7-1.44-10.96-.02-10.94,2.73.03,3.22,2.29,6.13,2.26,7.69,1.89,2.57,3.63,5.34,5.05,8.31,1.44,3.01,2.91,5.77,4.36,8.29.17-.1.35-.14.55-.09,1.24.31,1.19,1.18.87,2.5,2.08,3.44,4.08,6.36,5.85,8.75.64.09,1.01.13,1.01.13,0,0,.83-1.97,1.76-5.01-3.6-1.87-6.57-2.38-4.56-4.11ZM154.07,364.03c.59-1.77,6.52-3.81,7.54-1.4,1.02,2.42-8.13,3.17-7.54,1.4Z"/>
        <path class="cls-1" d="M159.79,379.81s-16.5-32.25-26.49-37.37"/>
      </g>
      <g>
        <path class="cls-15" d="M414.46,114.28c-2.08,1.47-4.38,2.35-6.2,1.14-2.79-1.85.48-4.29,3.26-7.11-1.22-1.56-2.77-2.93-4.72-3.94-.65-.34-1.37-.62-2.12-.86-1.85,4.87-.98,12.15-2.85,8.75-1.22-2.2-1.3-6.29-1.12-9.54-2.94-.32-6.19-.18-9.36.17,1.52,3.14,4.12,6.79,1.54,7.61-2.64.84-3.63-3.44-4.59-7.2-1.1.17-2.17.36-3.2.56,1.75,3.65,3.71,9.33,1.9,9.66-2.36.42-1.39-2.76-2.89-6.26-.47-1.1-1.3-2-2.21-2.72-3.92.9-6.62,1.76-6.62,1.76,0,0,.06,2.14.44,5.29,4.05.23,6.97-.53,5.85,1.88-.52,1.12-3,1.2-5.39,1.22.16.92.34,1.88.55,2.87,3.99-.21,8.53-1.41,7.91.33-.57,1.62-4.25,1.75-7.31,2.19,1,3.8,2.49,7.72,4.7,10.83,4.44-3.76,13.21-10.56,14-6.5.64,3.26-7.05,6.09-12.07,8.8.69.69,1.45,1.31,2.26,1.84,2.77,1.79,5.75,2.61,8.6,2.77,1.18-4.89,1.76-12.68,4.62-8.13,1.26,2,.85,4.91-.22,7.86,5.79-1.02,10.01-4.47,8.85-6.98-1.96-4.24-7.89-5.95-4.07-7.92,2.23-1.15,5.15,4.34,8.83,2.5,2.07-1.03,2.98-5.92,1.64-10.88ZM384.8,124.31c-1.92-1.79,6.11-6.22,6.3-4.37.19,1.86-4.39,6.15-6.3,4.37ZM398.04,114.74c-1.96-.31-2.47-7.85-.28-6.67,2.18,1.18,2.25,6.98.28,6.67ZM401.94,120.28c-2.45-.57,0-4.07,1.46-3.41,1.46.66.99,3.98-1.46,3.41Z"/>
        <path class="cls-12" d="M381.56,113.48c-.52,1.12-3,1.2-5.39,1.22.16.92.34,1.88.55,2.87,3.99-.21,8.53-1.41,7.91.33-.57,1.62-4.25,1.75-7.31,2.19,1,3.8,2.49,7.72,4.7,10.83,4.44-3.76,13.21-10.56,14-6.5.64,3.26-7.05,6.09-12.07,8.8.69.69,1.45,1.31,2.26,1.84,2.77,1.79,5.75,2.61,8.6,2.77,1.18-4.89,1.76-12.68,4.62-8.13,1.26,2,.85,4.91-.22,7.86,5.79-1.02,10.01-4.47,8.85-6.98-1.35-2.93-4.6-4.65-5.22-6.09-2.78-1.57-5.5-3.38-8.01-5.51-2.55-2.15-5.02-4.07-7.38-5.78-.11.16-.26.27-.47.31-1.26.22-1.57-.59-1.82-1.93-3.31-2.28-6.33-4.13-8.92-5.58-.62.18-.98.3-.98.3,0,0,.06,2.14.44,5.29,4.05.23,6.97-.53,5.85,1.88ZM391.1,119.95c.19,1.86-4.39,6.15-6.3,4.37-1.92-1.79,6.11-6.22,6.3-4.37Z"/>
        <path class="cls-1" d="M379.42,107.9s28.27,22.65,39.48,23.23"/>
      </g>
      <g>
        <path class="cls-12" d="M329.37,371.33s-3.06-2.1-6.79-2.66c-1.55,1.44-2.81,3.33-3.5,5.44-.03.09-.06.18-.08.28,1.99-.39,4.37-.53,6.05.43,0,0-3.46.63-6.41,1.76-.11,2.25.5,4.57,1.43,6.74,1.32-1.4,2.87-2.72,4.06-2.72l-3.33,4.28c.28.55.57,1.08.88,1.59.98-1.26,1.92-2.39,1.89-2.1-.02.27-.63,1.63-1.31,3.06.62.98,1.25,1.87,1.84,2.65l1.17-1.42-.78,1.93c1.31,1.68,2.31,2.71,2.31,2.71,0,0,4.06-1.01,8.25-2.79-.42-1.87-1.14-3.88-2.37-5.24,0,0,2.93,1.78,4.62,4.21,1.89-.94,3.64-2.04,4.9-3.27-1.82-2.4-4.89-6.53-4.09-6.19.73.32,3.88,2.41,5.95,3.82,1.21-1.95,1.79-3.96,1.72-5.85-1.42-.35-2.81-.77-2.17-.92.35-.08,1.14-.13,2.06-.16-.33-1.88-1.34-3.59-3.06-4.91-4.21-3.24-6.44,1.26-6.44,1.26-1.59-7.91-7.05-8.77-11.48-6.16,1.76.7,3.56,1.96,4.67,4.25Z"/>
        <g>
          <path class="cls-9" d="M335.48,374.73s.02.05.03.06c.19-.46.29-.72.29-.72,0,0-.32.67-.32.66Z"/>
          <path class="cls-9" d="M338.11,380c.73.32,3.88,2.41,5.95,3.82,1.21-1.95,1.79-3.96,1.72-5.85-1.42-.35-2.81-.77-2.17-.92.35-.08,1.14-.13,2.06-.16-.33-1.88-1.34-3.59-3.06-4.91-4.21-3.24-6.44,1.26-6.44,1.26-.13-.62-.47,1.78-.67,1.56-1.02,2.54-4.63,11.32-8.79,18.41.05.05.08.09.08.09,0,0,4.06-1.01,8.25-2.79-.42-1.87-1.14-3.88-2.37-5.24,0,0,2.93,1.78,4.62,4.21,1.89-.94,3.64-2.04,4.9-3.27-1.82-2.4-4.89-6.53-4.09-6.19Z"/>
        </g>
        <path class="cls-1" d="M327.88,390.61s10.19-17.27,9.49-25.25"/>
        <path class="cls-2" d="M319.11,379.87s11.14-7.06,16.37-5.14"/>
        <path class="cls-2" d="M333.71,379.15s6.08,6.01,5.73,8.75"/>
        <path class="cls-2" d="M329.98,387.02s2.17,2.21,2.12,4.5"/>
      </g>
      <g>
        <path class="cls-12" d="M51.42,38.7s-3.06-2.1-6.79-2.66c-1.55,1.44-2.81,3.33-3.5,5.44-.03.09-.06.18-.08.28,1.99-.39,4.37-.53,6.05.43,0,0-3.46.63-6.41,1.76-.11,2.25.5,4.57,1.43,6.74,1.32-1.4,2.87-2.72,4.06-2.72l-3.33,4.28c.28.55.57,1.08.88,1.59.98-1.26,1.92-2.39,1.89-2.1-.02.27-.63,1.63-1.31,3.06.62.98,1.25,1.87,1.84,2.65l1.17-1.42-.78,1.93c1.31,1.68,2.31,2.71,2.31,2.71,0,0,4.06-1.01,8.25-2.79-.42-1.87-1.14-3.88-2.37-5.24,0,0,2.93,1.78,4.62,4.21,1.89-.94,3.64-2.04,4.9-3.27-1.82-2.4-4.89-6.53-4.09-6.19.73.32,3.88,2.41,5.95,3.82,1.21-1.95,1.79-3.96,1.72-5.85-1.42-.35-2.81-.77-2.17-.92.35-.08,1.14-.13,2.06-.16-.33-1.88-1.34-3.59-3.06-4.91-4.21-3.24-6.44,1.26-6.44,1.26-1.59-7.91-7.05-8.77-11.48-6.16,1.76.7,3.56,1.96,4.67,4.25Z"/>
        <g>
          <path class="cls-9" d="M57.54,42.11s.02.05.03.06c.19-.46.29-.72.29-.72,0,0-.32.67-.32.66Z"/>
          <path class="cls-9" d="M60.16,47.38c.73.32,3.88,2.41,5.95,3.82,1.21-1.95,1.79-3.96,1.72-5.85-1.42-.35-2.81-.77-2.17-.92.35-.08,1.14-.13,2.06-.16-.33-1.88-1.34-3.59-3.06-4.91-4.21-3.24-6.44,1.26-6.44,1.26-.13-.62-.47,1.78-.67,1.56-1.02,2.54-4.63,11.32-8.79,18.41.05.05.08.09.08.09,0,0,4.06-1.01,8.25-2.79-.42-1.87-1.14-3.88-2.37-5.24,0,0,2.93,1.78,4.62,4.21,1.89-.94,3.64-2.04,4.9-3.27-1.82-2.4-4.89-6.53-4.09-6.19Z"/>
        </g>
        <path class="cls-1" d="M49.94,57.99s10.19-17.27,9.49-25.25"/>
        <path class="cls-2" d="M41.17,47.25s11.14-7.06,16.37-5.14"/>
        <path class="cls-2" d="M55.76,46.53s6.08,6.01,5.73,8.75"/>
        <path class="cls-2" d="M52.04,54.4s2.17,2.21,2.12,4.5"/>
      </g>
    </g>
    <g>
      <path class="cls-8" d="M391.78,180.06s-2.14-6.04,3.41-7.99c0,0,3.31,4.09-.1,8.38,0,0,6.33-3.22,7.99,1.17,0,0-1.17,4.48-7.31,2.34,0,0,2.63.97,2.24,3.99-.39,3.02-2.83,3.99-2.83,3.99,0,0-3.02-3.31-2.34-7.02,0,0-3.8,4.77-8.48,3.61,0,0,1.27-4.19,5.75-6.04,0,0-6.43.39-7.21-3.7,0,0,5.16-2.63,8.87,1.27Z"/>
      <path class="cls-14" d="M393.46,180.58c2.99.29,2.57,3.14-.21,3.28s-2.78-3.56.21-3.28Z"/>
    </g>
    <g>
      <path class="cls-8" d="M196.85,276.89s-2.14-6.04,3.41-7.99c0,0,3.31,4.09-.1,8.38,0,0,6.33-3.22,7.99,1.17,0,0-1.17,4.48-7.31,2.34,0,0,2.63.97,2.24,3.99-.39,3.02-2.83,3.99-2.83,3.99,0,0-3.02-3.31-2.34-7.02,0,0-3.8,4.77-8.48,3.61,0,0,1.27-4.19,5.75-6.04,0,0-6.43.39-7.21-3.7,0,0,5.16-2.63,8.87,1.27Z"/>
      <path class="cls-14" d="M198.53,277.41c2.99.29,2.57,3.14-.21,3.28s-2.78-3.56.21-3.28Z"/>
    </g>
    <g>
      <path class="cls-8" d="M139.64,86.4s-4.86-4.18-1-8.63c0,0,4.91,1.91,4.07,7.32,0,0,3.9-5.93,7.52-2.95,0,0,1.21,4.47-5.19,5.66,0,0,2.77-.46,3.93,2.36s-.47,4.87-.47,4.87c0,0-4.27-1.38-5.51-4.93,0,0-.93,6.03-5.57,7.34,0,0-.98-4.27,1.99-8.1,0,0-5.39,3.53-8.1.36,0,0,3.18-4.85,8.33-3.3Z"/>
      <path class="cls-14" d="M141.35,86.01c2.74-1.24,3.78,1.45,1.44,2.95-2.34,1.5-4.18-1.72-1.44-2.95Z"/>
    </g>
  </g>
</svg>